<svg xmlns="http://www.w3.org/2000/svg" version="1.1" xmlns:xlink="http://www.w3.org/1999/xlink" xmlns:svgjs="http://svgjs.dev/svgjs" width="1440" height="560" preserveAspectRatio="none" viewBox="0 0 1440 560">
    <g mask="url(&quot;#SvgjsMask1059&quot;)" fill="none">
        <path d="M1216 7L1215 -316" stroke-width="8" stroke="url(&quot;#SvgjsLinearGradient1060&quot;)" stroke-linecap="round" class="Down"></path>
        <path d="M838 471L837 129" stroke-width="8" stroke="url(&quot;#SvgjsLinearGradient1061&quot;)" stroke-linecap="round" class="Up"></path>
        <path d="M925 275L924 -87" stroke-width="8" stroke="url(&quot;#SvgjsLinearGradient1060&quot;)" stroke-linecap="round" class="Down"></path>
        <path d="M674 69L673 -249" stroke-width="10" stroke="url(&quot;#SvgjsLinearGradient1061&quot;)" stroke-linecap="round" class="Up"></path>
        <path d="M1085 495L1084 656" stroke-width="10" stroke="url(&quot;#SvgjsLinearGradient1060&quot;)" stroke-linecap="round" class="Down"></path>
        <path d="M88 95L87 497" stroke-width="6" stroke="url(&quot;#SvgjsLinearGradient1060&quot;)" stroke-linecap="round" class="Down"></path>
        <path d="M1024 416L1023 706" stroke-width="8" stroke="url(&quot;#SvgjsLinearGradient1060&quot;)" stroke-linecap="round" class="Down"></path>
        <path d="M273 264L272 439" stroke-width="6" stroke="url(&quot;#SvgjsLinearGradient1060&quot;)" stroke-linecap="round" class="Down"></path>
        <path d="M445 345L444 10" stroke-width="10" stroke="url(&quot;#SvgjsLinearGradient1060&quot;)" stroke-linecap="round" class="Down"></path>
        <path d="M394 374L393 788" stroke-width="6" stroke="url(&quot;#SvgjsLinearGradient1061&quot;)" stroke-linecap="round" class="Up"></path>
        <path d="M908 291L907 -39" stroke-width="8" stroke="url(&quot;#SvgjsLinearGradient1060&quot;)" stroke-linecap="round" class="Down"></path>
        <path d="M762 172L761 362" stroke-width="10" stroke="url(&quot;#SvgjsLinearGradient1061&quot;)" stroke-linecap="round" class="Up"></path>
        <path d="M20 158L19 -90" stroke-width="6" stroke="url(&quot;#SvgjsLinearGradient1060&quot;)" stroke-linecap="round" class="Down"></path>
        <path d="M261 325L260 579" stroke-width="6" stroke="url(&quot;#SvgjsLinearGradient1061&quot;)" stroke-linecap="round" class="Up"></path>
        <path d="M763 392L762 28" stroke-width="8" stroke="url(&quot;#SvgjsLinearGradient1061&quot;)" stroke-linecap="round" class="Up"></path>
        <path d="M868 216L867 408" stroke-width="6" stroke="url(&quot;#SvgjsLinearGradient1061&quot;)" stroke-linecap="round" class="Up"></path>
        <path d="M328 70L327 -328" stroke-width="8" stroke="url(&quot;#SvgjsLinearGradient1061&quot;)" stroke-linecap="round" class="Up"></path>
        <path d="M1303 515L1302 189" stroke-width="8" stroke="url(&quot;#SvgjsLinearGradient1061&quot;)" stroke-linecap="round" class="Up"></path>
        <path d="M1220 144L1219 -216" stroke-width="10" stroke="url(&quot;#SvgjsLinearGradient1060&quot;)" stroke-linecap="round" class="Down"></path>
        <path d="M195 519L194 100" stroke-width="6" stroke="url(&quot;#SvgjsLinearGradient1061&quot;)" stroke-linecap="round" class="Up"></path>
        <path d="M594 459L593 706" stroke-width="10" stroke="url(&quot;#SvgjsLinearGradient1060&quot;)" stroke-linecap="round" class="Down"></path>
        <path d="M1390 120L1389 -132" stroke-width="10" stroke="url(&quot;#SvgjsLinearGradient1061&quot;)" stroke-linecap="round" class="Up"></path>
        <path d="M484 231L483 -180" stroke-width="10" stroke="url(&quot;#SvgjsLinearGradient1061&quot;)" stroke-linecap="round" class="Up"></path>
        <path d="M495 366L494 602" stroke-width="10" stroke="url(&quot;#SvgjsLinearGradient1061&quot;)" stroke-linecap="round" class="Up"></path>
        <path d="M527 159L526 470" stroke-width="6" stroke="url(&quot;#SvgjsLinearGradient1061&quot;)" stroke-linecap="round" class="Up"></path>
        <path d="M218 494L217 813" stroke-width="8" stroke="url(&quot;#SvgjsLinearGradient1061&quot;)" stroke-linecap="round" class="Up"></path>
        <path d="M417 134L416 -119" stroke-width="10" stroke="url(&quot;#SvgjsLinearGradient1060&quot;)" stroke-linecap="round" class="Down"></path>
        <path d="M817 344L816 578" stroke-width="6" stroke="url(&quot;#SvgjsLinearGradient1061&quot;)" stroke-linecap="round" class="Up"></path>
        <path d="M1265 166L1264 -122" stroke-width="8" stroke="url(&quot;#SvgjsLinearGradient1060&quot;)" stroke-linecap="round" class="Down"></path>
        <path d="M607 382L606 53" stroke-width="10" stroke="url(&quot;#SvgjsLinearGradient1060&quot;)" stroke-linecap="round" class="Down"></path>
        <path d="M1401 480L1400 670" stroke-width="8" stroke="url(&quot;#SvgjsLinearGradient1060&quot;)" stroke-linecap="round" class="Down"></path>
        <path d="M537 494L536 269" stroke-width="8" stroke="url(&quot;#SvgjsLinearGradient1060&quot;)" stroke-linecap="round" class="Down"></path>
        <path d="M1123 311L1122 50" stroke-width="6" stroke="url(&quot;#SvgjsLinearGradient1061&quot;)" stroke-linecap="round" class="Up"></path>
        <path d="M1157 45L1156 343" stroke-width="8" stroke="url(&quot;#SvgjsLinearGradient1060&quot;)" stroke-linecap="round" class="Down"></path>
        <path d="M217 335L216 528" stroke-width="10" stroke="url(&quot;#SvgjsLinearGradient1060&quot;)" stroke-linecap="round" class="Down"></path>
        <path d="M831 226L830 -181" stroke-width="8" stroke="url(&quot;#SvgjsLinearGradient1061&quot;)" stroke-linecap="round" class="Up"></path>
    </g>
    <defs>
        <mask id="SvgjsMask1059">
            <rect width="1440" height="560" fill="#ffffff"></rect>
        </mask>
        <linearGradient x1="0%" y1="0%" x2="0%" y2="100%" id="SvgjsLinearGradient1060">
            <stop stop-color="rgba(226, 226, 226, 0)" offset="0"></stop>
            <stop stop-color="rgba(226, 226, 226, 1)" offset="1"></stop>
        </linearGradient>
        <linearGradient x1="0%" y1="100%" x2="0%" y2="0%" id="SvgjsLinearGradient1061">
            <stop stop-color="rgba(226, 226, 226, 0)" offset="0"></stop>
            <stop stop-color="rgba(226, 226, 226, 1)" offset="1"></stop>
        </linearGradient>
    </defs>
</svg>