<svg id="visual" viewBox="0 0 900 600" width="900" height="600" xmlns="http://www.w3.org/2000/svg" xmlns:xlink="http://www.w3.org/1999/xlink" version="1.1"><g fill="#297EA6"><path d="M0 -13.2L3 -4.1L12.6 -4.1L4.8 1.6L7.8 10.7L0 5L-7.8 10.7L-4.8 1.6L-12.6 -4.1L-3 -4.1Z" transform="translate(683 128)"></path><path d="M0 -0.9L0.2 -0.3L0.9 -0.3L0.3 0.1L0.6 0.8L0 0.4L-0.6 0.8L-0.3 0.1L-0.9 -0.3L-0.2 -0.3Z" transform="translate(651 127)"></path><path d="M0 -1.9L0.4 -0.6L1.8 -0.6L0.7 0.2L1.1 1.5L0 0.7L-1.1 1.5L-0.7 0.2L-1.8 -0.6L-0.4 -0.6Z" transform="translate(726 122)"></path><path d="M0 -11.3L2.5 -3.5L10.8 -3.5L4.1 1.3L6.7 9.2L0 4.3L-6.7 9.2L-4.1 1.3L-10.8 -3.5L-2.5 -3.5Z" transform="translate(167 251)"></path><path d="M0 -7.6L1.7 -2.3L7.2 -2.3L2.7 0.9L4.4 6.1L0 2.9L-4.4 6.1L-2.7 0.9L-7.2 -2.3L-1.7 -2.3Z" transform="translate(10 363)"></path><path d="M0 -4.7L1.1 -1.5L4.5 -1.5L1.7 0.6L2.8 3.8L0 1.8L-2.8 3.8L-1.7 0.6L-4.5 -1.5L-1.1 -1.5Z" transform="translate(874 306)"></path><path d="M0 -6.6L1.5 -2L6.3 -2L2.4 0.8L3.9 5.3L0 2.5L-3.9 5.3L-2.4 0.8L-6.3 -2L-1.5 -2Z" transform="translate(707 474)"></path><path d="M0 -9.4L2.1 -2.9L9 -2.9L3.4 1.1L5.5 7.6L0 3.6L-5.5 7.6L-3.4 1.1L-9 -2.9L-2.1 -2.9Z" transform="translate(257 329)"></path><path d="M0 -3.8L0.8 -1.2L3.6 -1.2L1.4 0.4L2.2 3.1L0 1.4L-2.2 3.1L-1.4 0.4L-3.6 -1.2L-0.8 -1.2Z" transform="translate(235 432)"></path><path d="M0 -11.3L2.5 -3.5L10.8 -3.5L4.1 1.3L6.7 9.2L0 4.3L-6.7 9.2L-4.1 1.3L-10.8 -3.5L-2.5 -3.5Z" transform="translate(805 89)"></path><path d="M0 -11.3L2.5 -3.5L10.8 -3.5L4.1 1.3L6.7 9.2L0 4.3L-6.7 9.2L-4.1 1.3L-10.8 -3.5L-2.5 -3.5Z" transform="translate(21 332)"></path><path d="M0 -7.6L1.7 -2.3L7.2 -2.3L2.7 0.9L4.4 6.1L0 2.9L-4.4 6.1L-2.7 0.9L-7.2 -2.3L-1.7 -2.3Z" transform="translate(530 229)"></path><path d="M0 -0.9L0.2 -0.3L0.9 -0.3L0.3 0.1L0.6 0.8L0 0.4L-0.6 0.8L-0.3 0.1L-0.9 -0.3L-0.2 -0.3Z" transform="translate(174 162)"></path><path d="M0 -0.9L0.2 -0.3L0.9 -0.3L0.3 0.1L0.6 0.8L0 0.4L-0.6 0.8L-0.3 0.1L-0.9 -0.3L-0.2 -0.3Z" transform="translate(870 548)"></path><path d="M0 -11.3L2.5 -3.5L10.8 -3.5L4.1 1.3L6.7 9.2L0 4.3L-6.7 9.2L-4.1 1.3L-10.8 -3.5L-2.5 -3.5Z" transform="translate(486 563)"></path><path d="M0 -5.7L1.3 -1.7L5.4 -1.7L2.1 0.7L3.3 4.6L0 2.2L-3.3 4.6L-2.1 0.7L-5.4 -1.7L-1.3 -1.7Z" transform="translate(527 517)"></path><path d="M0 -9.4L2.1 -2.9L9 -2.9L3.4 1.1L5.5 7.6L0 3.6L-5.5 7.6L-3.4 1.1L-9 -2.9L-2.1 -2.9Z" transform="translate(283 418)"></path><path d="M0 -3.8L0.8 -1.2L3.6 -1.2L1.4 0.4L2.2 3.1L0 1.4L-2.2 3.1L-1.4 0.4L-3.6 -1.2L-0.8 -1.2Z" transform="translate(33 12)"></path><path d="M0 -9.4L2.1 -2.9L9 -2.9L3.4 1.1L5.5 7.6L0 3.6L-5.5 7.6L-3.4 1.1L-9 -2.9L-2.1 -2.9Z" transform="translate(129 337)"></path><path d="M0 -2.8L0.6 -0.9L2.7 -0.9L1 0.3L1.7 2.3L0 1.1L-1.7 2.3L-1 0.3L-2.7 -0.9L-0.6 -0.9Z" transform="translate(328 486)"></path><path d="M0 -4.7L1.1 -1.5L4.5 -1.5L1.7 0.6L2.8 3.8L0 1.8L-2.8 3.8L-1.7 0.6L-4.5 -1.5L-1.1 -1.5Z" transform="translate(899 458)"></path><path d="M0 -3.8L0.8 -1.2L3.6 -1.2L1.4 0.4L2.2 3.1L0 1.4L-2.2 3.1L-1.4 0.4L-3.6 -1.2L-0.8 -1.2Z" transform="translate(660 412)"></path><path d="M0 0L0 0L0 0L0 0L0 0L0 0L0 0L0 0L0 0L0 0Z" transform="translate(177 105)"></path><path d="M0 -3.8L0.8 -1.2L3.6 -1.2L1.4 0.4L2.2 3.1L0 1.4L-2.2 3.1L-1.4 0.4L-3.6 -1.2L-0.8 -1.2Z" transform="translate(84 571)"></path><path d="M0 -5.7L1.3 -1.7L5.4 -1.7L2.1 0.7L3.3 4.6L0 2.2L-3.3 4.6L-2.1 0.7L-5.4 -1.7L-1.3 -1.7Z" transform="translate(722 377)"></path><path d="M0 -10.4L2.3 -3.2L9.9 -3.2L3.8 1.2L6.1 8.4L0 4L-6.1 8.4L-3.8 1.2L-9.9 -3.2L-2.3 -3.2Z" transform="translate(709 5)"></path><path d="M0 -11.3L2.5 -3.5L10.8 -3.5L4.1 1.3L6.7 9.2L0 4.3L-6.7 9.2L-4.1 1.3L-10.8 -3.5L-2.5 -3.5Z" transform="translate(279 53)"></path><path d="M0 -8.5L1.9 -2.6L8.1 -2.6L3.1 1L5 6.9L0 3.2L-5 6.9L-3.1 1L-8.1 -2.6L-1.9 -2.6Z" transform="translate(772 426)"></path><path d="M0 0L0 0L0 0L0 0L0 0L0 0L0 0L0 0L0 0L0 0Z" transform="translate(629 400)"></path><path d="M0 -7.6L1.7 -2.3L7.2 -2.3L2.7 0.9L4.4 6.1L0 2.9L-4.4 6.1L-2.7 0.9L-7.2 -2.3L-1.7 -2.3Z" transform="translate(559 581)"></path><path d="M0 0L0 0L0 0L0 0L0 0L0 0L0 0L0 0L0 0L0 0Z" transform="translate(497 246)"></path><path d="M0 -10.4L2.3 -3.2L9.9 -3.2L3.8 1.2L6.1 8.4L0 4L-6.1 8.4L-3.8 1.2L-9.9 -3.2L-2.3 -3.2Z" transform="translate(415 145)"></path><path d="M0 -4.7L1.1 -1.5L4.5 -1.5L1.7 0.6L2.8 3.8L0 1.8L-2.8 3.8L-1.7 0.6L-4.5 -1.5L-1.1 -1.5Z" transform="translate(681 432)"></path><path d="M0 -6.6L1.5 -2L6.3 -2L2.4 0.8L3.9 5.3L0 2.5L-3.9 5.3L-2.4 0.8L-6.3 -2L-1.5 -2Z" transform="translate(109 45)"></path><path d="M0 -8.5L1.9 -2.6L8.1 -2.6L3.1 1L5 6.9L0 3.2L-5 6.9L-3.1 1L-8.1 -2.6L-1.9 -2.6Z" transform="translate(648 77)"></path><path d="M0 -3.8L0.8 -1.2L3.6 -1.2L1.4 0.4L2.2 3.1L0 1.4L-2.2 3.1L-1.4 0.4L-3.6 -1.2L-0.8 -1.2Z" transform="translate(539 189)"></path><path d="M0 -6.6L1.5 -2L6.3 -2L2.4 0.8L3.9 5.3L0 2.5L-3.9 5.3L-2.4 0.8L-6.3 -2L-1.5 -2Z" transform="translate(643 262)"></path><path d="M0 -9.4L2.1 -2.9L9 -2.9L3.4 1.1L5.5 7.6L0 3.6L-5.5 7.6L-3.4 1.1L-9 -2.9L-2.1 -2.9Z" transform="translate(228 112)"></path><path d="M0 -5.7L1.3 -1.7L5.4 -1.7L2.1 0.7L3.3 4.6L0 2.2L-3.3 4.6L-2.1 0.7L-5.4 -1.7L-1.3 -1.7Z" transform="translate(13 250)"></path><path d="M0 0L0 0L0 0L0 0L0 0L0 0L0 0L0 0L0 0L0 0Z" transform="translate(174 30)"></path><path d="M0 -2.8L0.6 -0.9L2.7 -0.9L1 0.3L1.7 2.3L0 1.1L-1.7 2.3L-1 0.3L-2.7 -0.9L-0.6 -0.9Z" transform="translate(602 538)"></path><path d="M0 -11.3L2.5 -3.5L10.8 -3.5L4.1 1.3L6.7 9.2L0 4.3L-6.7 9.2L-4.1 1.3L-10.8 -3.5L-2.5 -3.5Z" transform="translate(418 382)"></path><path d="M0 0L0 0L0 0L0 0L0 0L0 0L0 0L0 0L0 0L0 0Z" transform="translate(227 404)"></path><path d="M0 -2.8L0.6 -0.9L2.7 -0.9L1 0.3L1.7 2.3L0 1.1L-1.7 2.3L-1 0.3L-2.7 -0.9L-0.6 -0.9Z" transform="translate(42 45)"></path><path d="M0 -1.9L0.4 -0.6L1.8 -0.6L0.7 0.2L1.1 1.5L0 0.7L-1.1 1.5L-0.7 0.2L-1.8 -0.6L-0.4 -0.6Z" transform="translate(135 24)"></path><path d="M0 -2.8L0.6 -0.9L2.7 -0.9L1 0.3L1.7 2.3L0 1.1L-1.7 2.3L-1 0.3L-2.7 -0.9L-0.6 -0.9Z" transform="translate(542 300)"></path><path d="M0 -9.4L2.1 -2.9L9 -2.9L3.4 1.1L5.5 7.6L0 3.6L-5.5 7.6L-3.4 1.1L-9 -2.9L-2.1 -2.9Z" transform="translate(524 255)"></path><path d="M0 -8.5L1.9 -2.6L8.1 -2.6L3.1 1L5 6.9L0 3.2L-5 6.9L-3.1 1L-8.1 -2.6L-1.9 -2.6Z" transform="translate(858 50)"></path><path d="M0 -10.4L2.3 -3.2L9.9 -3.2L3.8 1.2L6.1 8.4L0 4L-6.1 8.4L-3.8 1.2L-9.9 -3.2L-2.3 -3.2Z" transform="translate(180 355)"></path><path d="M0 -9.4L2.1 -2.9L9 -2.9L3.4 1.1L5.5 7.6L0 3.6L-5.5 7.6L-3.4 1.1L-9 -2.9L-2.1 -2.9Z" transform="translate(545 41)"></path><path d="M0 0L0 0L0 0L0 0L0 0L0 0L0 0L0 0L0 0L0 0Z" transform="translate(739 409)"></path><path d="M0 -10.4L2.3 -3.2L9.9 -3.2L3.8 1.2L6.1 8.4L0 4L-6.1 8.4L-3.8 1.2L-9.9 -3.2L-2.3 -3.2Z" transform="translate(194 180)"></path><path d="M0 -9.4L2.1 -2.9L9 -2.9L3.4 1.1L5.5 7.6L0 3.6L-5.5 7.6L-3.4 1.1L-9 -2.9L-2.1 -2.9Z" transform="translate(50 313)"></path><path d="M0 -7.6L1.7 -2.3L7.2 -2.3L2.7 0.9L4.4 6.1L0 2.9L-4.4 6.1L-2.7 0.9L-7.2 -2.3L-1.7 -2.3Z" transform="translate(261 542)"></path><path d="M0 -8.5L1.9 -2.6L8.1 -2.6L3.1 1L5 6.9L0 3.2L-5 6.9L-3.1 1L-8.1 -2.6L-1.9 -2.6Z" transform="translate(615 109)"></path><path d="M0 0L0 0L0 0L0 0L0 0L0 0L0 0L0 0L0 0L0 0Z" transform="translate(63 510)"></path><path d="M0 -1.9L0.4 -0.6L1.8 -0.6L0.7 0.2L1.1 1.5L0 0.7L-1.1 1.5L-0.7 0.2L-1.8 -0.6L-0.4 -0.6Z" transform="translate(480 199)"></path><path d="M0 -4.7L1.1 -1.5L4.5 -1.5L1.7 0.6L2.8 3.8L0 1.8L-2.8 3.8L-1.7 0.6L-4.5 -1.5L-1.1 -1.5Z" transform="translate(742 305)"></path><path d="M0 -7.6L1.7 -2.3L7.2 -2.3L2.7 0.9L4.4 6.1L0 2.9L-4.4 6.1L-2.7 0.9L-7.2 -2.3L-1.7 -2.3Z" transform="translate(88 186)"></path><path d="M0 -11.3L2.5 -3.5L10.8 -3.5L4.1 1.3L6.7 9.2L0 4.3L-6.7 9.2L-4.1 1.3L-10.8 -3.5L-2.5 -3.5Z" transform="translate(558 94)"></path><path d="M0 -4.7L1.1 -1.5L4.5 -1.5L1.7 0.6L2.8 3.8L0 1.8L-2.8 3.8L-1.7 0.6L-4.5 -1.5L-1.1 -1.5Z" transform="translate(372 89)"></path><path d="M0 -0.9L0.2 -0.3L0.9 -0.3L0.3 0.1L0.6 0.8L0 0.4L-0.6 0.8L-0.3 0.1L-0.9 -0.3L-0.2 -0.3Z" transform="translate(129 513)"></path><path d="M0 -0.9L0.2 -0.3L0.9 -0.3L0.3 0.1L0.6 0.8L0 0.4L-0.6 0.8L-0.3 0.1L-0.9 -0.3L-0.2 -0.3Z" transform="translate(186 552)"></path><path d="M0 0L0 0L0 0L0 0L0 0L0 0L0 0L0 0L0 0L0 0Z" transform="translate(187 387)"></path><path d="M0 -4.7L1.1 -1.5L4.5 -1.5L1.7 0.6L2.8 3.8L0 1.8L-2.8 3.8L-1.7 0.6L-4.5 -1.5L-1.1 -1.5Z" transform="translate(109 310)"></path><path d="M0 -9.4L2.1 -2.9L9 -2.9L3.4 1.1L5.5 7.6L0 3.6L-5.5 7.6L-3.4 1.1L-9 -2.9L-2.1 -2.9Z" transform="translate(836 560)"></path><path d="M0 -10.4L2.3 -3.2L9.9 -3.2L3.8 1.2L6.1 8.4L0 4L-6.1 8.4L-3.8 1.2L-9.9 -3.2L-2.3 -3.2Z" transform="translate(342 231)"></path><path d="M0 -9.4L2.1 -2.9L9 -2.9L3.4 1.1L5.5 7.6L0 3.6L-5.5 7.6L-3.4 1.1L-9 -2.9L-2.1 -2.9Z" transform="translate(108 542)"></path><path d="M0 -1.9L0.4 -0.6L1.8 -0.6L0.7 0.2L1.1 1.5L0 0.7L-1.1 1.5L-0.7 0.2L-1.8 -0.6L-0.4 -0.6Z" transform="translate(172 208)"></path><path d="M0 -5.7L1.3 -1.7L5.4 -1.7L2.1 0.7L3.3 4.6L0 2.2L-3.3 4.6L-2.1 0.7L-5.4 -1.7L-1.3 -1.7Z" transform="translate(629 33)"></path><path d="M0 -6.6L1.5 -2L6.3 -2L2.4 0.8L3.9 5.3L0 2.5L-3.9 5.3L-2.4 0.8L-6.3 -2L-1.5 -2Z" transform="translate(879 236)"></path><path d="M0 -6.6L1.5 -2L6.3 -2L2.4 0.8L3.9 5.3L0 2.5L-3.9 5.3L-2.4 0.8L-6.3 -2L-1.5 -2Z" transform="translate(791 539)"></path><path d="M0 -11.3L2.5 -3.5L10.8 -3.5L4.1 1.3L6.7 9.2L0 4.3L-6.7 9.2L-4.1 1.3L-10.8 -3.5L-2.5 -3.5Z" transform="translate(343 153)"></path><path d="M0 0L0 0L0 0L0 0L0 0L0 0L0 0L0 0L0 0L0 0Z" transform="translate(13 289)"></path><path d="M0 -5.7L1.3 -1.7L5.4 -1.7L2.1 0.7L3.3 4.6L0 2.2L-3.3 4.6L-2.1 0.7L-5.4 -1.7L-1.3 -1.7Z" transform="translate(99 407)"></path><path d="M0 -10.4L2.3 -3.2L9.9 -3.2L3.8 1.2L6.1 8.4L0 4L-6.1 8.4L-3.8 1.2L-9.9 -3.2L-2.3 -3.2Z" transform="translate(323 277)"></path><path d="M0 -5.7L1.3 -1.7L5.4 -1.7L2.1 0.7L3.3 4.6L0 2.2L-3.3 4.6L-2.1 0.7L-5.4 -1.7L-1.3 -1.7Z" transform="translate(164 517)"></path><path d="M0 -7.6L1.7 -2.3L7.2 -2.3L2.7 0.9L4.4 6.1L0 2.9L-4.4 6.1L-2.7 0.9L-7.2 -2.3L-1.7 -2.3Z" transform="translate(544 143)"></path><path d="M0 -5.7L1.3 -1.7L5.4 -1.7L2.1 0.7L3.3 4.6L0 2.2L-3.3 4.6L-2.1 0.7L-5.4 -1.7L-1.3 -1.7Z" transform="translate(749 141)"></path><path d="M0 -5.7L1.3 -1.7L5.4 -1.7L2.1 0.7L3.3 4.6L0 2.2L-3.3 4.6L-2.1 0.7L-5.4 -1.7L-1.3 -1.7Z" transform="translate(647 365)"></path><path d="M0 -1.9L0.4 -0.6L1.8 -0.6L0.7 0.2L1.1 1.5L0 0.7L-1.1 1.5L-0.7 0.2L-1.8 -0.6L-0.4 -0.6Z" transform="translate(577 203)"></path><path d="M0 -5.7L1.3 -1.7L5.4 -1.7L2.1 0.7L3.3 4.6L0 2.2L-3.3 4.6L-2.1 0.7L-5.4 -1.7L-1.3 -1.7Z" transform="translate(614 378)"></path><path d="M0 -10.4L2.3 -3.2L9.9 -3.2L3.8 1.2L6.1 8.4L0 4L-6.1 8.4L-3.8 1.2L-9.9 -3.2L-2.3 -3.2Z" transform="translate(43 212)"></path><path d="M0 -11.3L2.5 -3.5L10.8 -3.5L4.1 1.3L6.7 9.2L0 4.3L-6.7 9.2L-4.1 1.3L-10.8 -3.5L-2.5 -3.5Z" transform="translate(865 122)"></path><path d="M0 -3.8L0.8 -1.2L3.6 -1.2L1.4 0.4L2.2 3.1L0 1.4L-2.2 3.1L-1.4 0.4L-3.6 -1.2L-0.8 -1.2Z" transform="translate(529 120)"></path><path d="M0 -7.6L1.7 -2.3L7.2 -2.3L2.7 0.9L4.4 6.1L0 2.9L-4.4 6.1L-2.7 0.9L-7.2 -2.3L-1.7 -2.3Z" transform="translate(142 451)"></path><path d="M0 0L0 0L0 0L0 0L0 0L0 0L0 0L0 0L0 0L0 0Z" transform="translate(18 493)"></path><path d="M0 0L0 0L0 0L0 0L0 0L0 0L0 0L0 0L0 0L0 0Z" transform="translate(547 348)"></path><path d="M0 -11.3L2.5 -3.5L10.8 -3.5L4.1 1.3L6.7 9.2L0 4.3L-6.7 9.2L-4.1 1.3L-10.8 -3.5L-2.5 -3.5Z" transform="translate(748 333)"></path><path d="M0 -2.8L0.6 -0.9L2.7 -0.9L1 0.3L1.7 2.3L0 1.1L-1.7 2.3L-1 0.3L-2.7 -0.9L-0.6 -0.9Z" transform="translate(797 576)"></path><path d="M0 -7.6L1.7 -2.3L7.2 -2.3L2.7 0.9L4.4 6.1L0 2.9L-4.4 6.1L-2.7 0.9L-7.2 -2.3L-1.7 -2.3Z" transform="translate(72 349)"></path><path d="M0 -8.5L1.9 -2.6L8.1 -2.6L3.1 1L5 6.9L0 3.2L-5 6.9L-3.1 1L-8.1 -2.6L-1.9 -2.6Z" transform="translate(7 198)"></path><path d="M0 -10.4L2.3 -3.2L9.9 -3.2L3.8 1.2L6.1 8.4L0 4L-6.1 8.4L-3.8 1.2L-9.9 -3.2L-2.3 -3.2Z" transform="translate(367 174)"></path><path d="M0 0L0 0L0 0L0 0L0 0L0 0L0 0L0 0L0 0L0 0Z" transform="translate(346 48)"></path><path d="M0 -9.4L2.1 -2.9L9 -2.9L3.4 1.1L5.5 7.6L0 3.6L-5.5 7.6L-3.4 1.1L-9 -2.9L-2.1 -2.9Z" transform="translate(412 350)"></path><path d="M0 -4.7L1.1 -1.5L4.5 -1.5L1.7 0.6L2.8 3.8L0 1.8L-2.8 3.8L-1.7 0.6L-4.5 -1.5L-1.1 -1.5Z" transform="translate(606 441)"></path><path d="M0 -9.4L2.1 -2.9L9 -2.9L3.4 1.1L5.5 7.6L0 3.6L-5.5 7.6L-3.4 1.1L-9 -2.9L-2.1 -2.9Z" transform="translate(391 258)"></path><path d="M0 -4.7L1.1 -1.5L4.5 -1.5L1.7 0.6L2.8 3.8L0 1.8L-2.8 3.8L-1.7 0.6L-4.5 -1.5L-1.1 -1.5Z" transform="translate(303 555)"></path><path d="M0 -7.6L1.7 -2.3L7.2 -2.3L2.7 0.9L4.4 6.1L0 2.9L-4.4 6.1L-2.7 0.9L-7.2 -2.3L-1.7 -2.3Z" transform="translate(409 593)"></path><path d="M0 -3.8L0.8 -1.2L3.6 -1.2L1.4 0.4L2.2 3.1L0 1.4L-2.2 3.1L-1.4 0.4L-3.6 -1.2L-0.8 -1.2Z" transform="translate(345 395)"></path><path d="M0 -11.3L2.5 -3.5L10.8 -3.5L4.1 1.3L6.7 9.2L0 4.3L-6.7 9.2L-4.1 1.3L-10.8 -3.5L-2.5 -3.5Z" transform="translate(124 194)"></path><path d="M0 -8.5L1.9 -2.6L8.1 -2.6L3.1 1L5 6.9L0 3.2L-5 6.9L-3.1 1L-8.1 -2.6L-1.9 -2.6Z" transform="translate(611 243)"></path><path d="M0 -8.5L1.9 -2.6L8.1 -2.6L3.1 1L5 6.9L0 3.2L-5 6.9L-3.1 1L-8.1 -2.6L-1.9 -2.6Z" transform="translate(587 1)"></path><path d="M0 -6.6L1.5 -2L6.3 -2L2.4 0.8L3.9 5.3L0 2.5L-3.9 5.3L-2.4 0.8L-6.3 -2L-1.5 -2Z" transform="translate(298 14)"></path><path d="M0 -5.7L1.3 -1.7L5.4 -1.7L2.1 0.7L3.3 4.6L0 2.2L-3.3 4.6L-2.1 0.7L-5.4 -1.7L-1.3 -1.7Z" transform="translate(867 161)"></path><path d="M0 -2.8L0.6 -0.9L2.7 -0.9L1 0.3L1.7 2.3L0 1.1L-1.7 2.3L-1 0.3L-2.7 -0.9L-0.6 -0.9Z" transform="translate(735 221)"></path><path d="M0 -7.6L1.7 -2.3L7.2 -2.3L2.7 0.9L4.4 6.1L0 2.9L-4.4 6.1L-2.7 0.9L-7.2 -2.3L-1.7 -2.3Z" transform="translate(247 183)"></path><path d="M0 -2.8L0.6 -0.9L2.7 -0.9L1 0.3L1.7 2.3L0 1.1L-1.7 2.3L-1 0.3L-2.7 -0.9L-0.6 -0.9Z" transform="translate(524 409)"></path><path d="M0 -5.7L1.3 -1.7L5.4 -1.7L2.1 0.7L3.3 4.6L0 2.2L-3.3 4.6L-2.1 0.7L-5.4 -1.7L-1.3 -1.7Z" transform="translate(690 308)"></path><path d="M0 -5.7L1.3 -1.7L5.4 -1.7L2.1 0.7L3.3 4.6L0 2.2L-3.3 4.6L-2.1 0.7L-5.4 -1.7L-1.3 -1.7Z" transform="translate(840 517)"></path><path d="M0 -10.4L2.3 -3.2L9.9 -3.2L3.8 1.2L6.1 8.4L0 4L-6.1 8.4L-3.8 1.2L-9.9 -3.2L-2.3 -3.2Z" transform="translate(148 122)"></path><path d="M0 -1.9L0.4 -0.6L1.8 -0.6L0.7 0.2L1.1 1.5L0 0.7L-1.1 1.5L-0.7 0.2L-1.8 -0.6L-0.4 -0.6Z" transform="translate(436 180)"></path><path d="M0 -7.6L1.7 -2.3L7.2 -2.3L2.7 0.9L4.4 6.1L0 2.9L-4.4 6.1L-2.7 0.9L-7.2 -2.3L-1.7 -2.3Z" transform="translate(710 34)"></path><path d="M0 -11.3L2.5 -3.5L10.8 -3.5L4.1 1.3L6.7 9.2L0 4.3L-6.7 9.2L-4.1 1.3L-10.8 -3.5L-2.5 -3.5Z" transform="translate(20 528)"></path><path d="M0 -10.4L2.3 -3.2L9.9 -3.2L3.8 1.2L6.1 8.4L0 4L-6.1 8.4L-3.8 1.2L-9.9 -3.2L-2.3 -3.2Z" transform="translate(459 232)"></path><path d="M0 0L0 0L0 0L0 0L0 0L0 0L0 0L0 0L0 0L0 0Z" transform="translate(598 171)"></path><path d="M0 -9.4L2.1 -2.9L9 -2.9L3.4 1.1L5.5 7.6L0 3.6L-5.5 7.6L-3.4 1.1L-9 -2.9L-2.1 -2.9Z" transform="translate(768 47)"></path><path d="M0 -6.6L1.5 -2L6.3 -2L2.4 0.8L3.9 5.3L0 2.5L-3.9 5.3L-2.4 0.8L-6.3 -2L-1.5 -2Z" transform="translate(457 305)"></path><path d="M0 -3.8L0.8 -1.2L3.6 -1.2L1.4 0.4L2.2 3.1L0 1.4L-2.2 3.1L-1.4 0.4L-3.6 -1.2L-0.8 -1.2Z" transform="translate(110 115)"></path><path d="M0 -10.4L2.3 -3.2L9.9 -3.2L3.8 1.2L6.1 8.4L0 4L-6.1 8.4L-3.8 1.2L-9.9 -3.2L-2.3 -3.2Z" transform="translate(488 409)"></path><path d="M0 -9.4L2.1 -2.9L9 -2.9L3.4 1.1L5.5 7.6L0 3.6L-5.5 7.6L-3.4 1.1L-9 -2.9L-2.1 -2.9Z" transform="translate(504 339)"></path><path d="M0 -7.6L1.7 -2.3L7.2 -2.3L2.7 0.9L4.4 6.1L0 2.9L-4.4 6.1L-2.7 0.9L-7.2 -2.3L-1.7 -2.3Z" transform="translate(99 74)"></path><path d="M0 -4.7L1.1 -1.5L4.5 -1.5L1.7 0.6L2.8 3.8L0 1.8L-2.8 3.8L-1.7 0.6L-4.5 -1.5L-1.1 -1.5Z" transform="translate(712 179)"></path><path d="M0 0L0 0L0 0L0 0L0 0L0 0L0 0L0 0L0 0L0 0Z" transform="translate(199 45)"></path><path d="M0 -2.8L0.6 -0.9L2.7 -0.9L1 0.3L1.7 2.3L0 1.1L-1.7 2.3L-1 0.3L-2.7 -0.9L-0.6 -0.9Z" transform="translate(272 351)"></path><path d="M0 -6.6L1.5 -2L6.3 -2L2.4 0.8L3.9 5.3L0 2.5L-3.9 5.3L-2.4 0.8L-6.3 -2L-1.5 -2Z" transform="translate(443 25)"></path><path d="M0 -7.6L1.7 -2.3L7.2 -2.3L2.7 0.9L4.4 6.1L0 2.9L-4.4 6.1L-2.7 0.9L-7.2 -2.3L-1.7 -2.3Z" transform="translate(695 259)"></path><path d="M0 -3.8L0.8 -1.2L3.6 -1.2L1.4 0.4L2.2 3.1L0 1.4L-2.2 3.1L-1.4 0.4L-3.6 -1.2L-0.8 -1.2Z" transform="translate(427 414)"></path><path d="M0 -3.8L0.8 -1.2L3.6 -1.2L1.4 0.4L2.2 3.1L0 1.4L-2.2 3.1L-1.4 0.4L-3.6 -1.2L-0.8 -1.2Z" transform="translate(619 309)"></path><path d="M0 -6.6L1.5 -2L6.3 -2L2.4 0.8L3.9 5.3L0 2.5L-3.9 5.3L-2.4 0.8L-6.3 -2L-1.5 -2Z" transform="translate(195 76)"></path><path d="M0 -3.8L0.8 -1.2L3.6 -1.2L1.4 0.4L2.2 3.1L0 1.4L-2.2 3.1L-1.4 0.4L-3.6 -1.2L-0.8 -1.2Z" transform="translate(813 10)"></path><path d="M0 -6.6L1.5 -2L6.3 -2L2.4 0.8L3.9 5.3L0 2.5L-3.9 5.3L-2.4 0.8L-6.3 -2L-1.5 -2Z" transform="translate(51 467)"></path><path d="M0 -5.7L1.3 -1.7L5.4 -1.7L2.1 0.7L3.3 4.6L0 2.2L-3.3 4.6L-2.1 0.7L-5.4 -1.7L-1.3 -1.7Z" transform="translate(666 569)"></path><path d="M0 -4.7L1.1 -1.5L4.5 -1.5L1.7 0.6L2.8 3.8L0 1.8L-2.8 3.8L-1.7 0.6L-4.5 -1.5L-1.1 -1.5Z" transform="translate(214 495)"></path><path d="M0 -0.9L0.2 -0.3L0.9 -0.3L0.3 0.1L0.6 0.8L0 0.4L-0.6 0.8L-0.3 0.1L-0.9 -0.3L-0.2 -0.3Z" transform="translate(871 83)"></path><path d="M0 -7.6L1.7 -2.3L7.2 -2.3L2.7 0.9L4.4 6.1L0 2.9L-4.4 6.1L-2.7 0.9L-7.2 -2.3L-1.7 -2.3Z" transform="translate(162 483)"></path><path d="M0 -6.6L1.5 -2L6.3 -2L2.4 0.8L3.9 5.3L0 2.5L-3.9 5.3L-2.4 0.8L-6.3 -2L-1.5 -2Z" transform="translate(745 540)"></path><path d="M0 0L0 0L0 0L0 0L0 0L0 0L0 0L0 0L0 0L0 0Z" transform="translate(350 306)"></path><path d="M0 -2.8L0.6 -0.9L2.7 -0.9L1 0.3L1.7 2.3L0 1.1L-1.7 2.3L-1 0.3L-2.7 -0.9L-0.6 -0.9Z" transform="translate(506 187)"></path><path d="M0 -7.6L1.7 -2.3L7.2 -2.3L2.7 0.9L4.4 6.1L0 2.9L-4.4 6.1L-2.7 0.9L-7.2 -2.3L-1.7 -2.3Z" transform="translate(744 71)"></path><path d="M0 0L0 0L0 0L0 0L0 0L0 0L0 0L0 0L0 0L0 0Z" transform="translate(403 23)"></path><path d="M0 -5.7L1.3 -1.7L5.4 -1.7L2.1 0.7L3.3 4.6L0 2.2L-3.3 4.6L-2.1 0.7L-5.4 -1.7L-1.3 -1.7Z" transform="translate(463 498)"></path><path d="M0 -3.8L0.8 -1.2L3.6 -1.2L1.4 0.4L2.2 3.1L0 1.4L-2.2 3.1L-1.4 0.4L-3.6 -1.2L-0.8 -1.2Z" transform="translate(847 359)"></path><path d="M0 -7.6L1.7 -2.3L7.2 -2.3L2.7 0.9L4.4 6.1L0 2.9L-4.4 6.1L-2.7 0.9L-7.2 -2.3L-1.7 -2.3Z" transform="translate(149 48)"></path><path d="M0 -7.6L1.7 -2.3L7.2 -2.3L2.7 0.9L4.4 6.1L0 2.9L-4.4 6.1L-2.7 0.9L-7.2 -2.3L-1.7 -2.3Z" transform="translate(315 114)"></path><path d="M0 -10.4L2.3 -3.2L9.9 -3.2L3.8 1.2L6.1 8.4L0 4L-6.1 8.4L-3.8 1.2L-9.9 -3.2L-2.3 -3.2Z" transform="translate(5 96)"></path><path d="M0 -6.6L1.5 -2L6.3 -2L2.4 0.8L3.9 5.3L0 2.5L-3.9 5.3L-2.4 0.8L-6.3 -2L-1.5 -2Z" transform="translate(195 442)"></path><path d="M0 -3.8L0.8 -1.2L3.6 -1.2L1.4 0.4L2.2 3.1L0 1.4L-2.2 3.1L-1.4 0.4L-3.6 -1.2L-0.8 -1.2Z" transform="translate(686 228)"></path><path d="M0 -10.4L2.3 -3.2L9.9 -3.2L3.8 1.2L6.1 8.4L0 4L-6.1 8.4L-3.8 1.2L-9.9 -3.2L-2.3 -3.2Z" transform="translate(104 362)"></path><path d="M0 0L0 0L0 0L0 0L0 0L0 0L0 0L0 0L0 0L0 0Z" transform="translate(484 280)"></path><path d="M0 -10.4L2.3 -3.2L9.9 -3.2L3.8 1.2L6.1 8.4L0 4L-6.1 8.4L-3.8 1.2L-9.9 -3.2L-2.3 -3.2Z" transform="translate(685 75)"></path><path d="M0 -10.4L2.3 -3.2L9.9 -3.2L3.8 1.2L6.1 8.4L0 4L-6.1 8.4L-3.8 1.2L-9.9 -3.2L-2.3 -3.2Z" transform="translate(586 135)"></path><path d="M0 -8.5L1.9 -2.6L8.1 -2.6L3.1 1L5 6.9L0 3.2L-5 6.9L-3.1 1L-8.1 -2.6L-1.9 -2.6Z" transform="translate(247 227)"></path><path d="M0 -6.6L1.5 -2L6.3 -2L2.4 0.8L3.9 5.3L0 2.5L-3.9 5.3L-2.4 0.8L-6.3 -2L-1.5 -2Z" transform="translate(80 536)"></path><path d="M0 -4.7L1.1 -1.5L4.5 -1.5L1.7 0.6L2.8 3.8L0 1.8L-2.8 3.8L-1.7 0.6L-4.5 -1.5L-1.1 -1.5Z" transform="translate(564 61)"></path><path d="M0 -10.4L2.3 -3.2L9.9 -3.2L3.8 1.2L6.1 8.4L0 4L-6.1 8.4L-3.8 1.2L-9.9 -3.2L-2.3 -3.2Z" transform="translate(793 373)"></path><path d="M0 -10.4L2.3 -3.2L9.9 -3.2L3.8 1.2L6.1 8.4L0 4L-6.1 8.4L-3.8 1.2L-9.9 -3.2L-2.3 -3.2Z" transform="translate(656 333)"></path><path d="M0 -7.6L1.7 -2.3L7.2 -2.3L2.7 0.9L4.4 6.1L0 2.9L-4.4 6.1L-2.7 0.9L-7.2 -2.3L-1.7 -2.3Z" transform="translate(683 372)"></path><path d="M0 -7.6L1.7 -2.3L7.2 -2.3L2.7 0.9L4.4 6.1L0 2.9L-4.4 6.1L-2.7 0.9L-7.2 -2.3L-1.7 -2.3Z" transform="translate(783 312)"></path><path d="M0 -10.4L2.3 -3.2L9.9 -3.2L3.8 1.2L6.1 8.4L0 4L-6.1 8.4L-3.8 1.2L-9.9 -3.2L-2.3 -3.2Z" transform="translate(496 375)"></path><path d="M0 -6.6L1.5 -2L6.3 -2L2.4 0.8L3.9 5.3L0 2.5L-3.9 5.3L-2.4 0.8L-6.3 -2L-1.5 -2Z" transform="translate(466 132)"></path><path d="M0 -11.3L2.5 -3.5L10.8 -3.5L4.1 1.3L6.7 9.2L0 4.3L-6.7 9.2L-4.1 1.3L-10.8 -3.5L-2.5 -3.5Z" transform="translate(46 138)"></path><path d="M0 0L0 0L0 0L0 0L0 0L0 0L0 0L0 0L0 0L0 0Z" transform="translate(500 594)"></path><path d="M0 0L0 0L0 0L0 0L0 0L0 0L0 0L0 0L0 0L0 0Z" transform="translate(317 87)"></path><path d="M0 -1.9L0.4 -0.6L1.8 -0.6L0.7 0.2L1.1 1.5L0 0.7L-1.1 1.5L-0.7 0.2L-1.8 -0.6L-0.4 -0.6Z" transform="translate(696 596)"></path><path d="M0 -10.4L2.3 -3.2L9.9 -3.2L3.8 1.2L6.1 8.4L0 4L-6.1 8.4L-3.8 1.2L-9.9 -3.2L-2.3 -3.2Z" transform="translate(390 505)"></path><path d="M0 -10.4L2.3 -3.2L9.9 -3.2L3.8 1.2L6.1 8.4L0 4L-6.1 8.4L-3.8 1.2L-9.9 -3.2L-2.3 -3.2Z" transform="translate(564 450)"></path><path d="M0 -6.6L1.5 -2L6.3 -2L2.4 0.8L3.9 5.3L0 2.5L-3.9 5.3L-2.4 0.8L-6.3 -2L-1.5 -2Z" transform="translate(352 12)"></path><path d="M0 -8.5L1.9 -2.6L8.1 -2.6L3.1 1L5 6.9L0 3.2L-5 6.9L-3.1 1L-8.1 -2.6L-1.9 -2.6Z" transform="translate(579 358)"></path><path d="M0 -3.8L0.8 -1.2L3.6 -1.2L1.4 0.4L2.2 3.1L0 1.4L-2.2 3.1L-1.4 0.4L-3.6 -1.2L-0.8 -1.2Z" transform="translate(746 31)"></path><path d="M0 -3.8L0.8 -1.2L3.6 -1.2L1.4 0.4L2.2 3.1L0 1.4L-2.2 3.1L-1.4 0.4L-3.6 -1.2L-0.8 -1.2Z" transform="translate(203 120)"></path><path d="M0 -0.9L0.2 -0.3L0.9 -0.3L0.3 0.1L0.6 0.8L0 0.4L-0.6 0.8L-0.3 0.1L-0.9 -0.3L-0.2 -0.3Z" transform="translate(273 514)"></path><path d="M0 -11.3L2.5 -3.5L10.8 -3.5L4.1 1.3L6.7 9.2L0 4.3L-6.7 9.2L-4.1 1.3L-10.8 -3.5L-2.5 -3.5Z" transform="translate(520 461)"></path><path d="M0 -10.4L2.3 -3.2L9.9 -3.2L3.8 1.2L6.1 8.4L0 4L-6.1 8.4L-3.8 1.2L-9.9 -3.2L-2.3 -3.2Z" transform="translate(237 264)"></path><path d="M0 -3.8L0.8 -1.2L3.6 -1.2L1.4 0.4L2.2 3.1L0 1.4L-2.2 3.1L-1.4 0.4L-3.6 -1.2L-0.8 -1.2Z" transform="translate(796 231)"></path><path d="M0 -11.3L2.5 -3.5L10.8 -3.5L4.1 1.3L6.7 9.2L0 4.3L-6.7 9.2L-4.1 1.3L-10.8 -3.5L-2.5 -3.5Z" transform="translate(86 144)"></path><path d="M0 0L0 0L0 0L0 0L0 0L0 0L0 0L0 0L0 0L0 0Z" transform="translate(448 111)"></path><path d="M0 0L0 0L0 0L0 0L0 0L0 0L0 0L0 0L0 0L0 0Z" transform="translate(659 31)"></path><path d="M0 -1.9L0.4 -0.6L1.8 -0.6L0.7 0.2L1.1 1.5L0 0.7L-1.1 1.5L-0.7 0.2L-1.8 -0.6L-0.4 -0.6Z" transform="translate(49 597)"></path><path d="M0 -11.3L2.5 -3.5L10.8 -3.5L4.1 1.3L6.7 9.2L0 4.3L-6.7 9.2L-4.1 1.3L-10.8 -3.5L-2.5 -3.5Z" transform="translate(397 59)"></path><path d="M0 -4.7L1.1 -1.5L4.5 -1.5L1.7 0.6L2.8 3.8L0 1.8L-2.8 3.8L-1.7 0.6L-4.5 -1.5L-1.1 -1.5Z" transform="translate(803 401)"></path><path d="M0 -3.8L0.8 -1.2L3.6 -1.2L1.4 0.4L2.2 3.1L0 1.4L-2.2 3.1L-1.4 0.4L-3.6 -1.2L-0.8 -1.2Z" transform="translate(505 84)"></path><path d="M0 -9.4L2.1 -2.9L9 -2.9L3.4 1.1L5.5 7.6L0 3.6L-5.5 7.6L-3.4 1.1L-9 -2.9L-2.1 -2.9Z" transform="translate(837 32)"></path><path d="M0 -8.5L1.9 -2.6L8.1 -2.6L3.1 1L5 6.9L0 3.2L-5 6.9L-3.1 1L-8.1 -2.6L-1.9 -2.6Z" transform="translate(366 276)"></path><path d="M0 -2.8L0.6 -0.9L2.7 -0.9L1 0.3L1.7 2.3L0 1.1L-1.7 2.3L-1 0.3L-2.7 -0.9L-0.6 -0.9Z" transform="translate(573 266)"></path><path d="M0 -9.4L2.1 -2.9L9 -2.9L3.4 1.1L5.5 7.6L0 3.6L-5.5 7.6L-3.4 1.1L-9 -2.9L-2.1 -2.9Z" transform="translate(393 560)"></path><path d="M0 -1.9L0.4 -0.6L1.8 -0.6L0.7 0.2L1.1 1.5L0 0.7L-1.1 1.5L-0.7 0.2L-1.8 -0.6L-0.4 -0.6Z" transform="translate(129 417)"></path><path d="M0 -5.7L1.3 -1.7L5.4 -1.7L2.1 0.7L3.3 4.6L0 2.2L-3.3 4.6L-2.1 0.7L-5.4 -1.7L-1.3 -1.7Z" transform="translate(591 307)"></path><path d="M0 -0.9L0.2 -0.3L0.9 -0.3L0.3 0.1L0.6 0.8L0 0.4L-0.6 0.8L-0.3 0.1L-0.9 -0.3L-0.2 -0.3Z" transform="translate(772 3)"></path><path d="M0 -0.9L0.2 -0.3L0.9 -0.3L0.3 0.1L0.6 0.8L0 0.4L-0.6 0.8L-0.3 0.1L-0.9 -0.3L-0.2 -0.3Z" transform="translate(234 53)"></path><path d="M0 -5.7L1.3 -1.7L5.4 -1.7L2.1 0.7L3.3 4.6L0 2.2L-3.3 4.6L-2.1 0.7L-5.4 -1.7L-1.3 -1.7Z" transform="translate(391 459)"></path><path d="M0 -2.8L0.6 -0.9L2.7 -0.9L1 0.3L1.7 2.3L0 1.1L-1.7 2.3L-1 0.3L-2.7 -0.9L-0.6 -0.9Z" transform="translate(301 247)"></path><path d="M0 0L0 0L0 0L0 0L0 0L0 0L0 0L0 0L0 0L0 0Z" transform="translate(449 270)"></path><path d="M0 -10.4L2.3 -3.2L9.9 -3.2L3.8 1.2L6.1 8.4L0 4L-6.1 8.4L-3.8 1.2L-9.9 -3.2L-2.3 -3.2Z" transform="translate(84 31)"></path><path d="M0 -10.4L2.3 -3.2L9.9 -3.2L3.8 1.2L6.1 8.4L0 4L-6.1 8.4L-3.8 1.2L-9.9 -3.2L-2.3 -3.2Z" transform="translate(47 241)"></path><path d="M0 -9.4L2.1 -2.9L9 -2.9L3.4 1.1L5.5 7.6L0 3.6L-5.5 7.6L-3.4 1.1L-9 -2.9L-2.1 -2.9Z" transform="translate(138 289)"></path><path d="M0 -5.7L1.3 -1.7L5.4 -1.7L2.1 0.7L3.3 4.6L0 2.2L-3.3 4.6L-2.1 0.7L-5.4 -1.7L-1.3 -1.7Z" transform="translate(52 93)"></path><path d="M0 -6.6L1.5 -2L6.3 -2L2.4 0.8L3.9 5.3L0 2.5L-3.9 5.3L-2.4 0.8L-6.3 -2L-1.5 -2Z" transform="translate(389 405)"></path><path d="M0 -1.9L0.4 -0.6L1.8 -0.6L0.7 0.2L1.1 1.5L0 0.7L-1.1 1.5L-0.7 0.2L-1.8 -0.6L-0.4 -0.6Z" transform="translate(388 221)"></path><path d="M0 0L0 0L0 0L0 0L0 0L0 0L0 0L0 0L0 0L0 0Z" transform="translate(193 8)"></path><path d="M0 -1.9L0.4 -0.6L1.8 -0.6L0.7 0.2L1.1 1.5L0 0.7L-1.1 1.5L-0.7 0.2L-1.8 -0.6L-0.4 -0.6Z" transform="translate(495 8)"></path><path d="M0 -2.8L0.6 -0.9L2.7 -0.9L1 0.3L1.7 2.3L0 1.1L-1.7 2.3L-1 0.3L-2.7 -0.9L-0.6 -0.9Z" transform="translate(735 515)"></path><path d="M0 -8.5L1.9 -2.6L8.1 -2.6L3.1 1L5 6.9L0 3.2L-5 6.9L-3.1 1L-8.1 -2.6L-1.9 -2.6Z" transform="translate(841 133)"></path><path d="M0 0L0 0L0 0L0 0L0 0L0 0L0 0L0 0L0 0L0 0Z" transform="translate(217 589)"></path><path d="M0 -1.9L0.4 -0.6L1.8 -0.6L0.7 0.2L1.1 1.5L0 0.7L-1.1 1.5L-0.7 0.2L-1.8 -0.6L-0.4 -0.6Z" transform="translate(798 442)"></path><path d="M0 -5.7L1.3 -1.7L5.4 -1.7L2.1 0.7L3.3 4.6L0 2.2L-3.3 4.6L-2.1 0.7L-5.4 -1.7L-1.3 -1.7Z" transform="translate(512 57)"></path><path d="M0 -0.9L0.2 -0.3L0.9 -0.3L0.3 0.1L0.6 0.8L0 0.4L-0.6 0.8L-0.3 0.1L-0.9 -0.3L-0.2 -0.3Z" transform="translate(395 320)"></path><path d="M0 -10.4L2.3 -3.2L9.9 -3.2L3.8 1.2L6.1 8.4L0 4L-6.1 8.4L-3.8 1.2L-9.9 -3.2L-2.3 -3.2Z" transform="translate(249 9)"></path><path d="M0 -11.3L2.5 -3.5L10.8 -3.5L4.1 1.3L6.7 9.2L0 4.3L-6.7 9.2L-4.1 1.3L-10.8 -3.5L-2.5 -3.5Z" transform="translate(99 1)"></path><path d="M0 -10.4L2.3 -3.2L9.9 -3.2L3.8 1.2L6.1 8.4L0 4L-6.1 8.4L-3.8 1.2L-9.9 -3.2L-2.3 -3.2Z" transform="translate(455 387)"></path><path d="M0 -0.9L0.2 -0.3L0.9 -0.3L0.3 0.1L0.6 0.8L0 0.4L-0.6 0.8L-0.3 0.1L-0.9 -0.3L-0.2 -0.3Z" transform="translate(68 273)"></path><path d="M0 -4.7L1.1 -1.5L4.5 -1.5L1.7 0.6L2.8 3.8L0 1.8L-2.8 3.8L-1.7 0.6L-4.5 -1.5L-1.1 -1.5Z" transform="translate(298 198)"></path><path d="M0 -10.4L2.3 -3.2L9.9 -3.2L3.8 1.2L6.1 8.4L0 4L-6.1 8.4L-3.8 1.2L-9.9 -3.2L-2.3 -3.2Z" transform="translate(718 536)"></path><path d="M0 -0.9L0.2 -0.3L0.9 -0.3L0.3 0.1L0.6 0.8L0 0.4L-0.6 0.8L-0.3 0.1L-0.9 -0.3L-0.2 -0.3Z" transform="translate(318 418)"></path><path d="M0 -2.8L0.6 -0.9L2.7 -0.9L1 0.3L1.7 2.3L0 1.1L-1.7 2.3L-1 0.3L-2.7 -0.9L-0.6 -0.9Z" transform="translate(624 351)"></path><path d="M0 -3.8L0.8 -1.2L3.6 -1.2L1.4 0.4L2.2 3.1L0 1.4L-2.2 3.1L-1.4 0.4L-3.6 -1.2L-0.8 -1.2Z" transform="translate(487 159)"></path><path d="M0 0L0 0L0 0L0 0L0 0L0 0L0 0L0 0L0 0L0 0Z" transform="translate(125 83)"></path><path d="M0 -2.8L0.6 -0.9L2.7 -0.9L1 0.3L1.7 2.3L0 1.1L-1.7 2.3L-1 0.3L-2.7 -0.9L-0.6 -0.9Z" transform="translate(883 511)"></path><path d="M0 -11.3L2.5 -3.5L10.8 -3.5L4.1 1.3L6.7 9.2L0 4.3L-6.7 9.2L-4.1 1.3L-10.8 -3.5L-2.5 -3.5Z" transform="translate(833 214)"></path><path d="M0 -1.9L0.4 -0.6L1.8 -0.6L0.7 0.2L1.1 1.5L0 0.7L-1.1 1.5L-0.7 0.2L-1.8 -0.6L-0.4 -0.6Z" transform="translate(600 77)"></path><path d="M0 -2.8L0.6 -0.9L2.7 -0.9L1 0.3L1.7 2.3L0 1.1L-1.7 2.3L-1 0.3L-2.7 -0.9L-0.6 -0.9Z" transform="translate(217 223)"></path><path d="M0 -9.4L2.1 -2.9L9 -2.9L3.4 1.1L5.5 7.6L0 3.6L-5.5 7.6L-3.4 1.1L-9 -2.9L-2.1 -2.9Z" transform="translate(356 562)"></path><path d="M0 -7.6L1.7 -2.3L7.2 -2.3L2.7 0.9L4.4 6.1L0 2.9L-4.4 6.1L-2.7 0.9L-7.2 -2.3L-1.7 -2.3Z" transform="translate(271 450)"></path><path d="M0 -9.4L2.1 -2.9L9 -2.9L3.4 1.1L5.5 7.6L0 3.6L-5.5 7.6L-3.4 1.1L-9 -2.9L-2.1 -2.9Z" transform="translate(499 126)"></path><path d="M0 -6.6L1.5 -2L6.3 -2L2.4 0.8L3.9 5.3L0 2.5L-3.9 5.3L-2.4 0.8L-6.3 -2L-1.5 -2Z" transform="translate(189 581)"></path><path d="M0 -3.8L0.8 -1.2L3.6 -1.2L1.4 0.4L2.2 3.1L0 1.4L-2.2 3.1L-1.4 0.4L-3.6 -1.2L-0.8 -1.2Z" transform="translate(895 72)"></path><path d="M0 -1.9L0.4 -0.6L1.8 -0.6L0.7 0.2L1.1 1.5L0 0.7L-1.1 1.5L-0.7 0.2L-1.8 -0.6L-0.4 -0.6Z" transform="translate(460 444)"></path><path d="M0 -9.4L2.1 -2.9L9 -2.9L3.4 1.1L5.5 7.6L0 3.6L-5.5 7.6L-3.4 1.1L-9 -2.9L-2.1 -2.9Z" transform="translate(767 232)"></path><path d="M0 -3.8L0.8 -1.2L3.6 -1.2L1.4 0.4L2.2 3.1L0 1.4L-2.2 3.1L-1.4 0.4L-3.6 -1.2L-0.8 -1.2Z" transform="translate(436 470)"></path><path d="M0 -6.6L1.5 -2L6.3 -2L2.4 0.8L3.9 5.3L0 2.5L-3.9 5.3L-2.4 0.8L-6.3 -2L-1.5 -2Z" transform="translate(26 556)"></path><path d="M0 -10.4L2.3 -3.2L9.9 -3.2L3.8 1.2L6.1 8.4L0 4L-6.1 8.4L-3.8 1.2L-9.9 -3.2L-2.3 -3.2Z" transform="translate(705 353)"></path><path d="M0 -2.8L0.6 -0.9L2.7 -0.9L1 0.3L1.7 2.3L0 1.1L-1.7 2.3L-1 0.3L-2.7 -0.9L-0.6 -0.9Z" transform="translate(887 17)"></path><path d="M0 -11.3L2.5 -3.5L10.8 -3.5L4.1 1.3L6.7 9.2L0 4.3L-6.7 9.2L-4.1 1.3L-10.8 -3.5L-2.5 -3.5Z" transform="translate(218 193)"></path><path d="M0 -8.5L1.9 -2.6L8.1 -2.6L3.1 1L5 6.9L0 3.2L-5 6.9L-3.1 1L-8.1 -2.6L-1.9 -2.6Z" transform="translate(288 145)"></path><path d="M0 -10.4L2.3 -3.2L9.9 -3.2L3.8 1.2L6.1 8.4L0 4L-6.1 8.4L-3.8 1.2L-9.9 -3.2L-2.3 -3.2Z" transform="translate(34 266)"></path><path d="M0 -8.5L1.9 -2.6L8.1 -2.6L3.1 1L5 6.9L0 3.2L-5 6.9L-3.1 1L-8.1 -2.6L-1.9 -2.6Z" transform="translate(766 291)"></path><path d="M0 -0.9L0.2 -0.3L0.9 -0.3L0.3 0.1L0.6 0.8L0 0.4L-0.6 0.8L-0.3 0.1L-0.9 -0.3L-0.2 -0.3Z" transform="translate(819 115)"></path><path d="M0 -4.7L1.1 -1.5L4.5 -1.5L1.7 0.6L2.8 3.8L0 1.8L-2.8 3.8L-1.7 0.6L-4.5 -1.5L-1.1 -1.5Z" transform="translate(762 514)"></path><path d="M0 -9.4L2.1 -2.9L9 -2.9L3.4 1.1L5.5 7.6L0 3.6L-5.5 7.6L-3.4 1.1L-9 -2.9L-2.1 -2.9Z" transform="translate(570 518)"></path><path d="M0 -6.6L1.5 -2L6.3 -2L2.4 0.8L3.9 5.3L0 2.5L-3.9 5.3L-2.4 0.8L-6.3 -2L-1.5 -2Z" transform="translate(225 160)"></path><path d="M0 -1.9L0.4 -0.6L1.8 -0.6L0.7 0.2L1.1 1.5L0 0.7L-1.1 1.5L-0.7 0.2L-1.8 -0.6L-0.4 -0.6Z" transform="translate(125 594)"></path><path d="M0 -11.3L2.5 -3.5L10.8 -3.5L4.1 1.3L6.7 9.2L0 4.3L-6.7 9.2L-4.1 1.3L-10.8 -3.5L-2.5 -3.5Z" transform="translate(144 361)"></path><path d="M0 -10.4L2.3 -3.2L9.9 -3.2L3.8 1.2L6.1 8.4L0 4L-6.1 8.4L-3.8 1.2L-9.9 -3.2L-2.3 -3.2Z" transform="translate(641 209)"></path><path d="M0 0L0 0L0 0L0 0L0 0L0 0L0 0L0 0L0 0L0 0Z" transform="translate(799 156)"></path><path d="M0 -10.4L2.3 -3.2L9.9 -3.2L3.8 1.2L6.1 8.4L0 4L-6.1 8.4L-3.8 1.2L-9.9 -3.2L-2.3 -3.2Z" transform="translate(360 516)"></path><path d="M0 -7.6L1.7 -2.3L7.2 -2.3L2.7 0.9L4.4 6.1L0 2.9L-4.4 6.1L-2.7 0.9L-7.2 -2.3L-1.7 -2.3Z" transform="translate(679 474)"></path><path d="M0 -4.7L1.1 -1.5L4.5 -1.5L1.7 0.6L2.8 3.8L0 1.8L-2.8 3.8L-1.7 0.6L-4.5 -1.5L-1.1 -1.5Z" transform="translate(230 551)"></path><path d="M0 -8.5L1.9 -2.6L8.1 -2.6L3.1 1L5 6.9L0 3.2L-5 6.9L-3.1 1L-8.1 -2.6L-1.9 -2.6Z" transform="translate(767 199)"></path><path d="M0 -8.5L1.9 -2.6L8.1 -2.6L3.1 1L5 6.9L0 3.2L-5 6.9L-3.1 1L-8.1 -2.6L-1.9 -2.6Z" transform="translate(669 530)"></path><path d="M0 -9.4L2.1 -2.9L9 -2.9L3.4 1.1L5.5 7.6L0 3.6L-5.5 7.6L-3.4 1.1L-9 -2.9L-2.1 -2.9Z" transform="translate(725 280)"></path><path d="M0 0L0 0L0 0L0 0L0 0L0 0L0 0L0 0L0 0L0 0Z" transform="translate(584 473)"></path><path d="M0 -11.3L2.5 -3.5L10.8 -3.5L4.1 1.3L6.7 9.2L0 4.3L-6.7 9.2L-4.1 1.3L-10.8 -3.5L-2.5 -3.5Z" transform="translate(816 310)"></path><path d="M0 0L0 0L0 0L0 0L0 0L0 0L0 0L0 0L0 0L0 0Z" transform="translate(347 434)"></path><path d="M0 -2.8L0.6 -0.9L2.7 -0.9L1 0.3L1.7 2.3L0 1.1L-1.7 2.3L-1 0.3L-2.7 -0.9L-0.6 -0.9Z" transform="translate(512 546)"></path><path d="M0 -5.7L1.3 -1.7L5.4 -1.7L2.1 0.7L3.3 4.6L0 2.2L-3.3 4.6L-2.1 0.7L-5.4 -1.7L-1.3 -1.7Z" transform="translate(769 583)"></path><path d="M0 -10.4L2.3 -3.2L9.9 -3.2L3.8 1.2L6.1 8.4L0 4L-6.1 8.4L-3.8 1.2L-9.9 -3.2L-2.3 -3.2Z" transform="translate(425 253)"></path><path d="M0 -6.6L1.5 -2L6.3 -2L2.4 0.8L3.9 5.3L0 2.5L-3.9 5.3L-2.4 0.8L-6.3 -2L-1.5 -2Z" transform="translate(35 427)"></path><path d="M0 -10.4L2.3 -3.2L9.9 -3.2L3.8 1.2L6.1 8.4L0 4L-6.1 8.4L-3.8 1.2L-9.9 -3.2L-2.3 -3.2Z" transform="translate(776 110)"></path><path d="M0 -7.6L1.7 -2.3L7.2 -2.3L2.7 0.9L4.4 6.1L0 2.9L-4.4 6.1L-2.7 0.9L-7.2 -2.3L-1.7 -2.3Z" transform="translate(224 366)"></path><path d="M0 -8.5L1.9 -2.6L8.1 -2.6L3.1 1L5 6.9L0 3.2L-5 6.9L-3.1 1L-8.1 -2.6L-1.9 -2.6Z" transform="translate(1 457)"></path><path d="M0 -4.7L1.1 -1.5L4.5 -1.5L1.7 0.6L2.8 3.8L0 1.8L-2.8 3.8L-1.7 0.6L-4.5 -1.5L-1.1 -1.5Z" transform="translate(869 476)"></path><path d="M0 -1.9L0.4 -0.6L1.8 -0.6L0.7 0.2L1.1 1.5L0 0.7L-1.1 1.5L-0.7 0.2L-1.8 -0.6L-0.4 -0.6Z" transform="translate(116 244)"></path><path d="M0 -3.8L0.8 -1.2L3.6 -1.2L1.4 0.4L2.2 3.1L0 1.4L-2.2 3.1L-1.4 0.4L-3.6 -1.2L-0.8 -1.2Z" transform="translate(53 168)"></path><path d="M0 -5.7L1.3 -1.7L5.4 -1.7L2.1 0.7L3.3 4.6L0 2.2L-3.3 4.6L-2.1 0.7L-5.4 -1.7L-1.3 -1.7Z" transform="translate(144 157)"></path><path d="M0 -3.8L0.8 -1.2L3.6 -1.2L1.4 0.4L2.2 3.1L0 1.4L-2.2 3.1L-1.4 0.4L-3.6 -1.2L-0.8 -1.2Z" transform="translate(709 88)"></path><path d="M0 -7.6L1.7 -2.3L7.2 -2.3L2.7 0.9L4.4 6.1L0 2.9L-4.4 6.1L-2.7 0.9L-7.2 -2.3L-1.7 -2.3Z" transform="translate(215 312)"></path><path d="M0 -8.5L1.9 -2.6L8.1 -2.6L3.1 1L5 6.9L0 3.2L-5 6.9L-3.1 1L-8.1 -2.6L-1.9 -2.6Z" transform="translate(459 348)"></path><path d="M0 -9.4L2.1 -2.9L9 -2.9L3.4 1.1L5.5 7.6L0 3.6L-5.5 7.6L-3.4 1.1L-9 -2.9L-2.1 -2.9Z" transform="translate(133 479)"></path><path d="M0 -2.8L0.6 -0.9L2.7 -0.9L1 0.3L1.7 2.3L0 1.1L-1.7 2.3L-1 0.3L-2.7 -0.9L-0.6 -0.9Z" transform="translate(431 77)"></path><path d="M0 -5.7L1.3 -1.7L5.4 -1.7L2.1 0.7L3.3 4.6L0 2.2L-3.3 4.6L-2.1 0.7L-5.4 -1.7L-1.3 -1.7Z" transform="translate(401 104)"></path><path d="M0 -3.8L0.8 -1.2L3.6 -1.2L1.4 0.4L2.2 3.1L0 1.4L-2.2 3.1L-1.4 0.4L-3.6 -1.2L-0.8 -1.2Z" transform="translate(378 140)"></path><path d="M0 0L0 0L0 0L0 0L0 0L0 0L0 0L0 0L0 0L0 0Z" transform="translate(898 150)"></path><path d="M0 -1.9L0.4 -0.6L1.8 -0.6L0.7 0.2L1.1 1.5L0 0.7L-1.1 1.5L-0.7 0.2L-1.8 -0.6L-0.4 -0.6Z" transform="translate(742 186)"></path><path d="M0 -2.8L0.6 -0.9L2.7 -0.9L1 0.3L1.7 2.3L0 1.1L-1.7 2.3L-1 0.3L-2.7 -0.9L-0.6 -0.9Z" transform="translate(273 262)"></path><path d="M0 -7.6L1.7 -2.3L7.2 -2.3L2.7 0.9L4.4 6.1L0 2.9L-4.4 6.1L-2.7 0.9L-7.2 -2.3L-1.7 -2.3Z" transform="translate(893 387)"></path><path d="M0 -9.4L2.1 -2.9L9 -2.9L3.4 1.1L5.5 7.6L0 3.6L-5.5 7.6L-3.4 1.1L-9 -2.9L-2.1 -2.9Z" transform="translate(493 509)"></path><path d="M0 -10.4L2.3 -3.2L9.9 -3.2L3.8 1.2L6.1 8.4L0 4L-6.1 8.4L-3.8 1.2L-9.9 -3.2L-2.3 -3.2Z" transform="translate(119 142)"></path><path d="M0 0L0 0L0 0L0 0L0 0L0 0L0 0L0 0L0 0L0 0Z" transform="translate(648 292)"></path><path d="M0 0L0 0L0 0L0 0L0 0L0 0L0 0L0 0L0 0L0 0Z" transform="translate(259 98)"></path><path d="M0 -0.9L0.2 -0.3L0.9 -0.3L0.3 0.1L0.6 0.8L0 0.4L-0.6 0.8L-0.3 0.1L-0.9 -0.3L-0.2 -0.3Z" transform="translate(469 96)"></path><path d="M0 -7.6L1.7 -2.3L7.2 -2.3L2.7 0.9L4.4 6.1L0 2.9L-4.4 6.1L-2.7 0.9L-7.2 -2.3L-1.7 -2.3Z" transform="translate(445 574)"></path><path d="M0 -6.6L1.5 -2L6.3 -2L2.4 0.8L3.9 5.3L0 2.5L-3.9 5.3L-2.4 0.8L-6.3 -2L-1.5 -2Z" transform="translate(211 270)"></path><path d="M0 -1.9L0.4 -0.6L1.8 -0.6L0.7 0.2L1.1 1.5L0 0.7L-1.1 1.5L-0.7 0.2L-1.8 -0.6L-0.4 -0.6Z" transform="translate(595 567)"></path><path d="M0 -10.4L2.3 -3.2L9.9 -3.2L3.8 1.2L6.1 8.4L0 4L-6.1 8.4L-3.8 1.2L-9.9 -3.2L-2.3 -3.2Z" transform="translate(446 525)"></path><path d="M0 -10.4L2.3 -3.2L9.9 -3.2L3.8 1.2L6.1 8.4L0 4L-6.1 8.4L-3.8 1.2L-9.9 -3.2L-2.3 -3.2Z" transform="translate(160 317)"></path><path d="M0 -5.7L1.3 -1.7L5.4 -1.7L2.1 0.7L3.3 4.6L0 2.2L-3.3 4.6L-2.1 0.7L-5.4 -1.7L-1.3 -1.7Z" transform="translate(830 447)"></path><path d="M0 -11.3L2.5 -3.5L10.8 -3.5L4.1 1.3L6.7 9.2L0 4.3L-6.7 9.2L-4.1 1.3L-10.8 -3.5L-2.5 -3.5Z" transform="translate(314 357)"></path><path d="M0 -5.7L1.3 -1.7L5.4 -1.7L2.1 0.7L3.3 4.6L0 2.2L-3.3 4.6L-2.1 0.7L-5.4 -1.7L-1.3 -1.7Z" transform="translate(631 540)"></path><path d="M0 -6.6L1.5 -2L6.3 -2L2.4 0.8L3.9 5.3L0 2.5L-3.9 5.3L-2.4 0.8L-6.3 -2L-1.5 -2Z" transform="translate(636 427)"></path><path d="M0 -8.5L1.9 -2.6L8.1 -2.6L3.1 1L5 6.9L0 3.2L-5 6.9L-3.1 1L-8.1 -2.6L-1.9 -2.6Z" transform="translate(782 483)"></path><path d="M0 -2.8L0.6 -0.9L2.7 -0.9L1 0.3L1.7 2.3L0 1.1L-1.7 2.3L-1 0.3L-2.7 -0.9L-0.6 -0.9Z" transform="translate(27 166)"></path><path d="M0 -8.5L1.9 -2.6L8.1 -2.6L3.1 1L5 6.9L0 3.2L-5 6.9L-3.1 1L-8.1 -2.6L-1.9 -2.6Z" transform="translate(836 258)"></path><path d="M0 -1.9L0.4 -0.6L1.8 -0.6L0.7 0.2L1.1 1.5L0 0.7L-1.1 1.5L-0.7 0.2L-1.8 -0.6L-0.4 -0.6Z" transform="translate(306 506)"></path><path d="M0 -5.7L1.3 -1.7L5.4 -1.7L2.1 0.7L3.3 4.6L0 2.2L-3.3 4.6L-2.1 0.7L-5.4 -1.7L-1.3 -1.7Z" transform="translate(105 218)"></path><path d="M0 0L0 0L0 0L0 0L0 0L0 0L0 0L0 0L0 0L0 0Z" transform="translate(156 88)"></path><path d="M0 -1.9L0.4 -0.6L1.8 -0.6L0.7 0.2L1.1 1.5L0 0.7L-1.1 1.5L-0.7 0.2L-1.8 -0.6L-0.4 -0.6Z" transform="translate(192 514)"></path><path d="M0 -7.6L1.7 -2.3L7.2 -2.3L2.7 0.9L4.4 6.1L0 2.9L-4.4 6.1L-2.7 0.9L-7.2 -2.3L-1.7 -2.3Z" transform="translate(453 59)"></path><path d="M0 -6.6L1.5 -2L6.3 -2L2.4 0.8L3.9 5.3L0 2.5L-3.9 5.3L-2.4 0.8L-6.3 -2L-1.5 -2Z" transform="translate(137 262)"></path><path d="M0 -5.7L1.3 -1.7L5.4 -1.7L2.1 0.7L3.3 4.6L0 2.2L-3.3 4.6L-2.1 0.7L-5.4 -1.7L-1.3 -1.7Z" transform="translate(505 310)"></path><path d="M0 -10.4L2.3 -3.2L9.9 -3.2L3.8 1.2L6.1 8.4L0 4L-6.1 8.4L-3.8 1.2L-9.9 -3.2L-2.3 -3.2Z" transform="translate(733 456)"></path><path d="M0 -4.7L1.1 -1.5L4.5 -1.5L1.7 0.6L2.8 3.8L0 1.8L-2.8 3.8L-1.7 0.6L-4.5 -1.5L-1.1 -1.5Z" transform="translate(422 558)"></path><path d="M0 0L0 0L0 0L0 0L0 0L0 0L0 0L0 0L0 0L0 0Z" transform="translate(714 432)"></path><path d="M0 -6.6L1.5 -2L6.3 -2L2.4 0.8L3.9 5.3L0 2.5L-3.9 5.3L-2.4 0.8L-6.3 -2L-1.5 -2Z" transform="translate(409 203)"></path><path d="M0 -0.9L0.2 -0.3L0.9 -0.3L0.3 0.1L0.6 0.8L0 0.4L-0.6 0.8L-0.3 0.1L-0.9 -0.3L-0.2 -0.3Z" transform="translate(875 264)"></path><path d="M0 -8.5L1.9 -2.6L8.1 -2.6L3.1 1L5 6.9L0 3.2L-5 6.9L-3.1 1L-8.1 -2.6L-1.9 -2.6Z" transform="translate(157 590)"></path><path d="M0 -8.5L1.9 -2.6L8.1 -2.6L3.1 1L5 6.9L0 3.2L-5 6.9L-3.1 1L-8.1 -2.6L-1.9 -2.6Z" transform="translate(831 59)"></path><path d="M0 -1.9L0.4 -0.6L1.8 -0.6L0.7 0.2L1.1 1.5L0 0.7L-1.1 1.5L-0.7 0.2L-1.8 -0.6L-0.4 -0.6Z" transform="translate(717 60)"></path><path d="M0 -11.3L2.5 -3.5L10.8 -3.5L4.1 1.3L6.7 9.2L0 4.3L-6.7 9.2L-4.1 1.3L-10.8 -3.5L-2.5 -3.5Z" transform="translate(672 100)"></path><path d="M0 -9.4L2.1 -2.9L9 -2.9L3.4 1.1L5.5 7.6L0 3.6L-5.5 7.6L-3.4 1.1L-9 -2.9L-2.1 -2.9Z" transform="translate(21 587)"></path><path d="M0 -5.7L1.3 -1.7L5.4 -1.7L2.1 0.7L3.3 4.6L0 2.2L-3.3 4.6L-2.1 0.7L-5.4 -1.7L-1.3 -1.7Z" transform="translate(80 97)"></path><path d="M0 -9.4L2.1 -2.9L9 -2.9L3.4 1.1L5.5 7.6L0 3.6L-5.5 7.6L-3.4 1.1L-9 -2.9L-2.1 -2.9Z" transform="translate(688 400)"></path><path d="M0 -4.7L1.1 -1.5L4.5 -1.5L1.7 0.6L2.8 3.8L0 1.8L-2.8 3.8L-1.7 0.6L-4.5 -1.5L-1.1 -1.5Z" transform="translate(559 13)"></path><path d="M0 -3.8L0.8 -1.2L3.6 -1.2L1.4 0.4L2.2 3.1L0 1.4L-2.2 3.1L-1.4 0.4L-3.6 -1.2L-0.8 -1.2Z" transform="translate(689 159)"></path><path d="M0 -4.7L1.1 -1.5L4.5 -1.5L1.7 0.6L2.8 3.8L0 1.8L-2.8 3.8L-1.7 0.6L-4.5 -1.5L-1.1 -1.5Z" transform="translate(871 347)"></path><path d="M0 -2.8L0.6 -0.9L2.7 -0.9L1 0.3L1.7 2.3L0 1.1L-1.7 2.3L-1 0.3L-2.7 -0.9L-0.6 -0.9Z" transform="translate(285 297)"></path><path d="M0 -0.9L0.2 -0.3L0.9 -0.3L0.3 0.1L0.6 0.8L0 0.4L-0.6 0.8L-0.3 0.1L-0.9 -0.3L-0.2 -0.3Z" transform="translate(248 502)"></path><path d="M0 -5.7L1.3 -1.7L5.4 -1.7L2.1 0.7L3.3 4.6L0 2.2L-3.3 4.6L-2.1 0.7L-5.4 -1.7L-1.3 -1.7Z" transform="translate(712 502)"></path><path d="M0 -0.9L0.2 -0.3L0.9 -0.3L0.3 0.1L0.6 0.8L0 0.4L-0.6 0.8L-0.3 0.1L-0.9 -0.3L-0.2 -0.3Z" transform="translate(339 179)"></path><path d="M0 -5.7L1.3 -1.7L5.4 -1.7L2.1 0.7L3.3 4.6L0 2.2L-3.3 4.6L-2.1 0.7L-5.4 -1.7L-1.3 -1.7Z" transform="translate(565 162)"></path><path d="M0 -3.8L0.8 -1.2L3.6 -1.2L1.4 0.4L2.2 3.1L0 1.4L-2.2 3.1L-1.4 0.4L-3.6 -1.2L-0.8 -1.2Z" transform="translate(62 408)"></path><path d="M0 -0.9L0.2 -0.3L0.9 -0.3L0.3 0.1L0.6 0.8L0 0.4L-0.6 0.8L-0.3 0.1L-0.9 -0.3L-0.2 -0.3Z" transform="translate(794 289)"></path><path d="M0 -3.8L0.8 -1.2L3.6 -1.2L1.4 0.4L2.2 3.1L0 1.4L-2.2 3.1L-1.4 0.4L-3.6 -1.2L-0.8 -1.2Z" transform="translate(691 559)"></path><path d="M0 -2.8L0.6 -0.9L2.7 -0.9L1 0.3L1.7 2.3L0 1.1L-1.7 2.3L-1 0.3L-2.7 -0.9L-0.6 -0.9Z" transform="translate(606 598)"></path><path d="M0 -9.4L2.1 -2.9L9 -2.9L3.4 1.1L5.5 7.6L0 3.6L-5.5 7.6L-3.4 1.1L-9 -2.9L-2.1 -2.9Z" transform="translate(356 333)"></path><path d="M0 -0.9L0.2 -0.3L0.9 -0.3L0.3 0.1L0.6 0.8L0 0.4L-0.6 0.8L-0.3 0.1L-0.9 -0.3L-0.2 -0.3Z" transform="translate(726 248)"></path><path d="M0 -0.9L0.2 -0.3L0.9 -0.3L0.3 0.1L0.6 0.8L0 0.4L-0.6 0.8L-0.3 0.1L-0.9 -0.3L-0.2 -0.3Z" transform="translate(768 363)"></path><path d="M0 -8.5L1.9 -2.6L8.1 -2.6L3.1 1L5 6.9L0 3.2L-5 6.9L-3.1 1L-8.1 -2.6L-1.9 -2.6Z" transform="translate(653 491)"></path><path d="M0 -7.6L1.7 -2.3L7.2 -2.3L2.7 0.9L4.4 6.1L0 2.9L-4.4 6.1L-2.7 0.9L-7.2 -2.3L-1.7 -2.3Z" transform="translate(110 284)"></path><path d="M0 -5.7L1.3 -1.7L5.4 -1.7L2.1 0.7L3.3 4.6L0 2.2L-3.3 4.6L-2.1 0.7L-5.4 -1.7L-1.3 -1.7Z" transform="translate(862 582)"></path><path d="M0 -7.6L1.7 -2.3L7.2 -2.3L2.7 0.9L4.4 6.1L0 2.9L-4.4 6.1L-2.7 0.9L-7.2 -2.3L-1.7 -2.3Z" transform="translate(90 506)"></path><path d="M0 -0.9L0.2 -0.3L0.9 -0.3L0.3 0.1L0.6 0.8L0 0.4L-0.6 0.8L-0.3 0.1L-0.9 -0.3L-0.2 -0.3Z" transform="translate(591 502)"></path><path d="M0 -1.9L0.4 -0.6L1.8 -0.6L0.7 0.2L1.1 1.5L0 0.7L-1.1 1.5L-0.7 0.2L-1.8 -0.6L-0.4 -0.6Z" transform="translate(317 56)"></path><path d="M0 0L0 0L0 0L0 0L0 0L0 0L0 0L0 0L0 0L0 0Z" transform="translate(1 61)"></path><path d="M0 -11.3L2.5 -3.5L10.8 -3.5L4.1 1.3L6.7 9.2L0 4.3L-6.7 9.2L-4.1 1.3L-10.8 -3.5L-2.5 -3.5Z" transform="translate(801 508)"></path><path d="M0 -8.5L1.9 -2.6L8.1 -2.6L3.1 1L5 6.9L0 3.2L-5 6.9L-3.1 1L-8.1 -2.6L-1.9 -2.6Z" transform="translate(75 381)"></path><path d="M0 -9.4L2.1 -2.9L9 -2.9L3.4 1.1L5.5 7.6L0 3.6L-5.5 7.6L-3.4 1.1L-9 -2.9L-2.1 -2.9Z" transform="translate(771 83)"></path><path d="M0 0L0 0L0 0L0 0L0 0L0 0L0 0L0 0L0 0L0 0Z" transform="translate(553 484)"></path><path d="M0 -7.6L1.7 -2.3L7.2 -2.3L2.7 0.9L4.4 6.1L0 2.9L-4.4 6.1L-2.7 0.9L-7.2 -2.3L-1.7 -2.3Z" transform="translate(886 195)"></path><path d="M0 -7.6L1.7 -2.3L7.2 -2.3L2.7 0.9L4.4 6.1L0 2.9L-4.4 6.1L-2.7 0.9L-7.2 -2.3L-1.7 -2.3Z" transform="translate(64 4)"></path><path d="M0 -10.4L2.3 -3.2L9.9 -3.2L3.8 1.2L6.1 8.4L0 4L-6.1 8.4L-3.8 1.2L-9.9 -3.2L-2.3 -3.2Z" transform="translate(730 590)"></path><path d="M0 -6.6L1.5 -2L6.3 -2L2.4 0.8L3.9 5.3L0 2.5L-3.9 5.3L-2.4 0.8L-6.3 -2L-1.5 -2Z" transform="translate(99 469)"></path><path d="M0 -9.4L2.1 -2.9L9 -2.9L3.4 1.1L5.5 7.6L0 3.6L-5.5 7.6L-3.4 1.1L-9 -2.9L-2.1 -2.9Z" transform="translate(528 377)"></path><path d="M0 -5.7L1.3 -1.7L5.4 -1.7L2.1 0.7L3.3 4.6L0 2.2L-3.3 4.6L-2.1 0.7L-5.4 -1.7L-1.3 -1.7Z" transform="translate(542 554)"></path><path d="M0 -6.6L1.5 -2L6.3 -2L2.4 0.8L3.9 5.3L0 2.5L-3.9 5.3L-2.4 0.8L-6.3 -2L-1.5 -2Z" transform="translate(470 471)"></path><path d="M0 -6.6L1.5 -2L6.3 -2L2.4 0.8L3.9 5.3L0 2.5L-3.9 5.3L-2.4 0.8L-6.3 -2L-1.5 -2Z" transform="translate(660 231)"></path><path d="M0 -10.4L2.3 -3.2L9.9 -3.2L3.8 1.2L6.1 8.4L0 4L-6.1 8.4L-3.8 1.2L-9.9 -3.2L-2.3 -3.2Z" transform="translate(498 438)"></path><path d="M0 -0.9L0.2 -0.3L0.9 -0.3L0.3 0.1L0.6 0.8L0 0.4L-0.6 0.8L-0.3 0.1L-0.9 -0.3L-0.2 -0.3Z" transform="translate(805 339)"></path><path d="M0 0L0 0L0 0L0 0L0 0L0 0L0 0L0 0L0 0L0 0Z" transform="translate(243 459)"></path><path d="M0 -7.6L1.7 -2.3L7.2 -2.3L2.7 0.9L4.4 6.1L0 2.9L-4.4 6.1L-2.7 0.9L-7.2 -2.3L-1.7 -2.3Z" transform="translate(5 411)"></path><path d="M0 -6.6L1.5 -2L6.3 -2L2.4 0.8L3.9 5.3L0 2.5L-3.9 5.3L-2.4 0.8L-6.3 -2L-1.5 -2Z" transform="translate(561 235)"></path><path d="M0 -8.5L1.9 -2.6L8.1 -2.6L3.1 1L5 6.9L0 3.2L-5 6.9L-3.1 1L-8.1 -2.6L-1.9 -2.6Z" transform="translate(261 33)"></path><path d="M0 -11.3L2.5 -3.5L10.8 -3.5L4.1 1.3L6.7 9.2L0 4.3L-6.7 9.2L-4.1 1.3L-10.8 -3.5L-2.5 -3.5Z" transform="translate(482 40)"></path><path d="M0 -5.7L1.3 -1.7L5.4 -1.7L2.1 0.7L3.3 4.6L0 2.2L-3.3 4.6L-2.1 0.7L-5.4 -1.7L-1.3 -1.7Z" transform="translate(774 167)"></path><path d="M0 -7.6L1.7 -2.3L7.2 -2.3L2.7 0.9L4.4 6.1L0 2.9L-4.4 6.1L-2.7 0.9L-7.2 -2.3L-1.7 -2.3Z" transform="translate(514 490)"></path><path d="M0 -2.8L0.6 -0.9L2.7 -0.9L1 0.3L1.7 2.3L0 1.1L-1.7 2.3L-1 0.3L-2.7 -0.9L-0.6 -0.9Z" transform="translate(630 157)"></path><path d="M0 -6.6L1.5 -2L6.3 -2L2.4 0.8L3.9 5.3L0 2.5L-3.9 5.3L-2.4 0.8L-6.3 -2L-1.5 -2Z" transform="translate(143 558)"></path><path d="M0 -3.8L0.8 -1.2L3.6 -1.2L1.4 0.4L2.2 3.1L0 1.4L-2.2 3.1L-1.4 0.4L-3.6 -1.2L-0.8 -1.2Z" transform="translate(832 332)"></path><path d="M0 -1.9L0.4 -0.6L1.8 -0.6L0.7 0.2L1.1 1.5L0 0.7L-1.1 1.5L-0.7 0.2L-1.8 -0.6L-0.4 -0.6Z" transform="translate(653 597)"></path><path d="M0 -4.7L1.1 -1.5L4.5 -1.5L1.7 0.6L2.8 3.8L0 1.8L-2.8 3.8L-1.7 0.6L-4.5 -1.5L-1.1 -1.5Z" transform="translate(54 564)"></path><path d="M0 -9.4L2.1 -2.9L9 -2.9L3.4 1.1L5.5 7.6L0 3.6L-5.5 7.6L-3.4 1.1L-9 -2.9L-2.1 -2.9Z" transform="translate(344 107)"></path><path d="M0 -6.6L1.5 -2L6.3 -2L2.4 0.8L3.9 5.3L0 2.5L-3.9 5.3L-2.4 0.8L-6.3 -2L-1.5 -2Z" transform="translate(793 203)"></path><path d="M0 -0.9L0.2 -0.3L0.9 -0.3L0.3 0.1L0.6 0.8L0 0.4L-0.6 0.8L-0.3 0.1L-0.9 -0.3L-0.2 -0.3Z" transform="translate(279 171)"></path><path d="M0 -8.5L1.9 -2.6L8.1 -2.6L3.1 1L5 6.9L0 3.2L-5 6.9L-3.1 1L-8.1 -2.6L-1.9 -2.6Z" transform="translate(381 433)"></path><path d="M0 -11.3L2.5 -3.5L10.8 -3.5L4.1 1.3L6.7 9.2L0 4.3L-6.7 9.2L-4.1 1.3L-10.8 -3.5L-2.5 -3.5Z" transform="translate(92 437)"></path><path d="M0 -7.6L1.7 -2.3L7.2 -2.3L2.7 0.9L4.4 6.1L0 2.9L-4.4 6.1L-2.7 0.9L-7.2 -2.3L-1.7 -2.3Z" transform="translate(378 34)"></path><path d="M0 -0.9L0.2 -0.3L0.9 -0.3L0.3 0.1L0.6 0.8L0 0.4L-0.6 0.8L-0.3 0.1L-0.9 -0.3L-0.2 -0.3Z" transform="translate(166 411)"></path><path d="M0 -2.8L0.6 -0.9L2.7 -0.9L1 0.3L1.7 2.3L0 1.1L-1.7 2.3L-1 0.3L-2.7 -0.9L-0.6 -0.9Z" transform="translate(372 376)"></path><path d="M0 -2.8L0.6 -0.9L2.7 -0.9L1 0.3L1.7 2.3L0 1.1L-1.7 2.3L-1 0.3L-2.7 -0.9L-0.6 -0.9Z" transform="translate(295 474)"></path><path d="M0 -6.6L1.5 -2L6.3 -2L2.4 0.8L3.9 5.3L0 2.5L-3.9 5.3L-2.4 0.8L-6.3 -2L-1.5 -2Z" transform="translate(861 396)"></path><path d="M0 -0.9L0.2 -0.3L0.9 -0.3L0.3 0.1L0.6 0.8L0 0.4L-0.6 0.8L-0.3 0.1L-0.9 -0.3L-0.2 -0.3Z" transform="translate(442 209)"></path><path d="M0 -3.8L0.8 -1.2L3.6 -1.2L1.4 0.4L2.2 3.1L0 1.4L-2.2 3.1L-1.4 0.4L-3.6 -1.2L-0.8 -1.2Z" transform="translate(894 325)"></path><path d="M0 -4.7L1.1 -1.5L4.5 -1.5L1.7 0.6L2.8 3.8L0 1.8L-2.8 3.8L-1.7 0.6L-4.5 -1.5L-1.1 -1.5Z" transform="translate(598 415)"></path><path d="M0 -11.3L2.5 -3.5L10.8 -3.5L4.1 1.3L6.7 9.2L0 4.3L-6.7 9.2L-4.1 1.3L-10.8 -3.5L-2.5 -3.5Z" transform="translate(247 295)"></path><path d="M0 -1.9L0.4 -0.6L1.8 -0.6L0.7 0.2L1.1 1.5L0 0.7L-1.1 1.5L-0.7 0.2L-1.8 -0.6L-0.4 -0.6Z" transform="translate(514 153)"></path><path d="M0 -5.7L1.3 -1.7L5.4 -1.7L2.1 0.7L3.3 4.6L0 2.2L-3.3 4.6L-2.1 0.7L-5.4 -1.7L-1.3 -1.7Z" transform="translate(722 151)"></path><path d="M0 -9.4L2.1 -2.9L9 -2.9L3.4 1.1L5.5 7.6L0 3.6L-5.5 7.6L-3.4 1.1L-9 -2.9L-2.1 -2.9Z" transform="translate(413 290)"></path><path d="M0 -8.5L1.9 -2.6L8.1 -2.6L3.1 1L5 6.9L0 3.2L-5 6.9L-3.1 1L-8.1 -2.6L-1.9 -2.6Z" transform="translate(322 310)"></path><path d="M0 -3.8L0.8 -1.2L3.6 -1.2L1.4 0.4L2.2 3.1L0 1.4L-2.2 3.1L-1.4 0.4L-3.6 -1.2L-0.8 -1.2Z" transform="translate(716 316)"></path><path d="M0 -3.8L0.8 -1.2L3.6 -1.2L1.4 0.4L2.2 3.1L0 1.4L-2.2 3.1L-1.4 0.4L-3.6 -1.2L-0.8 -1.2Z" transform="translate(885 596)"></path><path d="M0 -6.6L1.5 -2L6.3 -2L2.4 0.8L3.9 5.3L0 2.5L-3.9 5.3L-2.4 0.8L-6.3 -2L-1.5 -2Z" transform="translate(140 216)"></path><path d="M0 0L0 0L0 0L0 0L0 0L0 0L0 0L0 0L0 0L0 0Z" transform="translate(816 598)"></path><path d="M0 -10.4L2.3 -3.2L9.9 -3.2L3.8 1.2L6.1 8.4L0 4L-6.1 8.4L-3.8 1.2L-9.9 -3.2L-2.3 -3.2Z" transform="translate(870 441)"></path><path d="M0 -3.8L0.8 -1.2L3.6 -1.2L1.4 0.4L2.2 3.1L0 1.4L-2.2 3.1L-1.4 0.4L-3.6 -1.2L-0.8 -1.2Z" transform="translate(361 201)"></path><path d="M0 -7.6L1.7 -2.3L7.2 -2.3L2.7 0.9L4.4 6.1L0 2.9L-4.4 6.1L-2.7 0.9L-7.2 -2.3L-1.7 -2.3Z" transform="translate(739 98)"></path><path d="M0 -3.8L0.8 -1.2L3.6 -1.2L1.4 0.4L2.2 3.1L0 1.4L-2.2 3.1L-1.4 0.4L-3.6 -1.2L-0.8 -1.2Z" transform="translate(820 486)"></path><path d="M0 -4.7L1.1 -1.5L4.5 -1.5L1.7 0.6L2.8 3.8L0 1.8L-2.8 3.8L-1.7 0.6L-4.5 -1.5L-1.1 -1.5Z" transform="translate(188 289)"></path><path d="M0 -10.4L2.3 -3.2L9.9 -3.2L3.8 1.2L6.1 8.4L0 4L-6.1 8.4L-3.8 1.2L-9.9 -3.2L-2.3 -3.2Z" transform="translate(288 375)"></path><path d="M0 -10.4L2.3 -3.2L9.9 -3.2L3.8 1.2L6.1 8.4L0 4L-6.1 8.4L-3.8 1.2L-9.9 -3.2L-2.3 -3.2Z" transform="translate(471 539)"></path><path d="M0 -6.6L1.5 -2L6.3 -2L2.4 0.8L3.9 5.3L0 2.5L-3.9 5.3L-2.4 0.8L-6.3 -2L-1.5 -2Z" transform="translate(268 396)"></path><path d="M0 -1.9L0.4 -0.6L1.8 -0.6L0.7 0.2L1.1 1.5L0 0.7L-1.1 1.5L-0.7 0.2L-1.8 -0.6L-0.4 -0.6Z" transform="translate(526 578)"></path><path d="M0 -5.7L1.3 -1.7L5.4 -1.7L2.1 0.7L3.3 4.6L0 2.2L-3.3 4.6L-2.1 0.7L-5.4 -1.7L-1.3 -1.7Z" transform="translate(368 589)"></path><path d="M0 -9.4L2.1 -2.9L9 -2.9L3.4 1.1L5.5 7.6L0 3.6L-5.5 7.6L-3.4 1.1L-9 -2.9L-2.1 -2.9Z" transform="translate(618 276)"></path><path d="M0 -3.8L0.8 -1.2L3.6 -1.2L1.4 0.4L2.2 3.1L0 1.4L-2.2 3.1L-1.4 0.4L-3.6 -1.2L-0.8 -1.2Z" transform="translate(19 135)"></path><path d="M0 -11.3L2.5 -3.5L10.8 -3.5L4.1 1.3L6.7 9.2L0 4.3L-6.7 9.2L-4.1 1.3L-10.8 -3.5L-2.5 -3.5Z" transform="translate(274 213)"></path><path d="M0 -2.8L0.6 -0.9L2.7 -0.9L1 0.3L1.7 2.3L0 1.1L-1.7 2.3L-1 0.3L-2.7 -0.9L-0.6 -0.9Z" transform="translate(722 563)"></path><path d="M0 -8.5L1.9 -2.6L8.1 -2.6L3.1 1L5 6.9L0 3.2L-5 6.9L-3.1 1L-8.1 -2.6L-1.9 -2.6Z" transform="translate(559 414)"></path><path d="M0 -0.9L0.2 -0.3L0.9 -0.3L0.3 0.1L0.6 0.8L0 0.4L-0.6 0.8L-0.3 0.1L-0.9 -0.3L-0.2 -0.3Z" transform="translate(438 327)"></path><path d="M0 -8.5L1.9 -2.6L8.1 -2.6L3.1 1L5 6.9L0 3.2L-5 6.9L-3.1 1L-8.1 -2.6L-1.9 -2.6Z" transform="translate(319 587)"></path><path d="M0 -9.4L2.1 -2.9L9 -2.9L3.4 1.1L5.5 7.6L0 3.6L-5.5 7.6L-3.4 1.1L-9 -2.9L-2.1 -2.9Z" transform="translate(578 391)"></path><path d="M0 -10.4L2.3 -3.2L9.9 -3.2L3.8 1.2L6.1 8.4L0 4L-6.1 8.4L-3.8 1.2L-9.9 -3.2L-2.3 -3.2Z" transform="translate(840 298)"></path><path d="M0 -9.4L2.1 -2.9L9 -2.9L3.4 1.1L5.5 7.6L0 3.6L-5.5 7.6L-3.4 1.1L-9 -2.9L-2.1 -2.9Z" transform="translate(663 160)"></path><path d="M0 -5.7L1.3 -1.7L5.4 -1.7L2.1 0.7L3.3 4.6L0 2.2L-3.3 4.6L-2.1 0.7L-5.4 -1.7L-1.3 -1.7Z" transform="translate(600 35)"></path><path d="M0 -6.6L1.5 -2L6.3 -2L2.4 0.8L3.9 5.3L0 2.5L-3.9 5.3L-2.4 0.8L-6.3 -2L-1.5 -2Z" transform="translate(832 165)"></path><path d="M0 -10.4L2.3 -3.2L9.9 -3.2L3.8 1.2L6.1 8.4L0 4L-6.1 8.4L-3.8 1.2L-9.9 -3.2L-2.3 -3.2Z" transform="translate(893 108)"></path><path d="M0 -2.8L0.6 -0.9L2.7 -0.9L1 0.3L1.7 2.3L0 1.1L-1.7 2.3L-1 0.3L-2.7 -0.9L-0.6 -0.9Z" transform="translate(221 82)"></path><path d="M0 -2.8L0.6 -0.9L2.7 -0.9L1 0.3L1.7 2.3L0 1.1L-1.7 2.3L-1 0.3L-2.7 -0.9L-0.6 -0.9Z" transform="translate(216 340)"></path><path d="M0 -11.3L2.5 -3.5L10.8 -3.5L4.1 1.3L6.7 9.2L0 4.3L-6.7 9.2L-4.1 1.3L-10.8 -3.5L-2.5 -3.5Z" transform="translate(271 574)"></path><path d="M0 -10.4L2.3 -3.2L9.9 -3.2L3.8 1.2L6.1 8.4L0 4L-6.1 8.4L-3.8 1.2L-9.9 -3.2L-2.3 -3.2Z" transform="translate(75 238)"></path><path d="M0 -3.8L0.8 -1.2L3.6 -1.2L1.4 0.4L2.2 3.1L0 1.4L-2.2 3.1L-1.4 0.4L-3.6 -1.2L-0.8 -1.2Z" transform="translate(368 475)"></path><path d="M0 -4.7L1.1 -1.5L4.5 -1.5L1.7 0.6L2.8 3.8L0 1.8L-2.8 3.8L-1.7 0.6L-4.5 -1.5L-1.1 -1.5Z" transform="translate(611 213)"></path><path d="M0 -11.3L2.5 -3.5L10.8 -3.5L4.1 1.3L6.7 9.2L0 4.3L-6.7 9.2L-4.1 1.3L-10.8 -3.5L-2.5 -3.5Z" transform="translate(570 325)"></path><path d="M0 -0.9L0.2 -0.3L0.9 -0.3L0.3 0.1L0.6 0.8L0 0.4L-0.6 0.8L-0.3 0.1L-0.9 -0.3L-0.2 -0.3Z" transform="translate(421 509)"></path><path d="M0 -3.8L0.8 -1.2L3.6 -1.2L1.4 0.4L2.2 3.1L0 1.4L-2.2 3.1L-1.4 0.4L-3.6 -1.2L-0.8 -1.2Z" transform="translate(295 530)"></path><path d="M0 -5.7L1.3 -1.7L5.4 -1.7L2.1 0.7L3.3 4.6L0 2.2L-3.3 4.6L-2.1 0.7L-5.4 -1.7L-1.3 -1.7Z" transform="translate(38 362)"></path><path d="M0 -6.6L1.5 -2L6.3 -2L2.4 0.8L3.9 5.3L0 2.5L-3.9 5.3L-2.4 0.8L-6.3 -2L-1.5 -2Z" transform="translate(626 485)"></path><path d="M0 -2.8L0.6 -0.9L2.7 -0.9L1 0.3L1.7 2.3L0 1.1L-1.7 2.3L-1 0.3L-2.7 -0.9L-0.6 -0.9Z" transform="translate(795 59)"></path><path d="M0 0L0 0L0 0L0 0L0 0L0 0L0 0L0 0L0 0L0 0Z" transform="translate(809 258)"></path><path d="M0 -4.7L1.1 -1.5L4.5 -1.5L1.7 0.6L2.8 3.8L0 1.8L-2.8 3.8L-1.7 0.6L-4.5 -1.5L-1.1 -1.5Z" transform="translate(407 174)"></path><path d="M0 -3.8L0.8 -1.2L3.6 -1.2L1.4 0.4L2.2 3.1L0 1.4L-2.2 3.1L-1.4 0.4L-3.6 -1.2L-0.8 -1.2Z" transform="translate(71 210)"></path><path d="M0 -0.9L0.2 -0.3L0.9 -0.3L0.3 0.1L0.6 0.8L0 0.4L-0.6 0.8L-0.3 0.1L-0.9 -0.3L-0.2 -0.3Z" transform="translate(523 3)"></path><path d="M0 -11.3L2.5 -3.5L10.8 -3.5L4.1 1.3L6.7 9.2L0 4.3L-6.7 9.2L-4.1 1.3L-10.8 -3.5L-2.5 -3.5Z" transform="translate(83 323)"></path><path d="M0 -1.9L0.4 -0.6L1.8 -0.6L0.7 0.2L1.1 1.5L0 0.7L-1.1 1.5L-0.7 0.2L-1.8 -0.6L-0.4 -0.6Z" transform="translate(325 539)"></path><path d="M0 -4.7L1.1 -1.5L4.5 -1.5L1.7 0.6L2.8 3.8L0 1.8L-2.8 3.8L-1.7 0.6L-4.5 -1.5L-1.1 -1.5Z" transform="translate(513 280)"></path><path d="M0 -1.9L0.4 -0.6L1.8 -0.6L0.7 0.2L1.1 1.5L0 0.7L-1.1 1.5L-0.7 0.2L-1.8 -0.6L-0.4 -0.6Z" transform="translate(519 31)"></path><path d="M0 -2.8L0.6 -0.9L2.7 -0.9L1 0.3L1.7 2.3L0 1.1L-1.7 2.3L-1 0.3L-2.7 -0.9L-0.6 -0.9Z" transform="translate(26 76)"></path><path d="M0 -3.8L0.8 -1.2L3.6 -1.2L1.4 0.4L2.2 3.1L0 1.4L-2.2 3.1L-1.4 0.4L-3.6 -1.2L-0.8 -1.2Z" transform="translate(760 450)"></path><path d="M0 0L0 0L0 0L0 0L0 0L0 0L0 0L0 0L0 0L0 0Z" transform="translate(66 443)"></path><path d="M0 -4.7L1.1 -1.5L4.5 -1.5L1.7 0.6L2.8 3.8L0 1.8L-2.8 3.8L-1.7 0.6L-4.5 -1.5L-1.1 -1.5Z" transform="translate(665 2)"></path><path d="M0 -4.7L1.1 -1.5L4.5 -1.5L1.7 0.6L2.8 3.8L0 1.8L-2.8 3.8L-1.7 0.6L-4.5 -1.5L-1.1 -1.5Z" transform="translate(532 435)"></path><path d="M0 0L0 0L0 0L0 0L0 0L0 0L0 0L0 0L0 0L0 0Z" transform="translate(62 65)"></path><path d="M0 0L0 0L0 0L0 0L0 0L0 0L0 0L0 0L0 0L0 0Z" transform="translate(777 261)"></path><path d="M0 -11.3L2.5 -3.5L10.8 -3.5L4.1 1.3L6.7 9.2L0 4.3L-6.7 9.2L-4.1 1.3L-10.8 -3.5L-2.5 -3.5Z" transform="translate(345 77)"></path><path d="M0 -2.8L0.6 -0.9L2.7 -0.9L1 0.3L1.7 2.3L0 1.1L-1.7 2.3L-1 0.3L-2.7 -0.9L-0.6 -0.9Z" transform="translate(255 145)"></path><path d="M0 -6.6L1.5 -2L6.3 -2L2.4 0.8L3.9 5.3L0 2.5L-3.9 5.3L-2.4 0.8L-6.3 -2L-1.5 -2Z" transform="translate(220 18)"></path><path d="M0 0L0 0L0 0L0 0L0 0L0 0L0 0L0 0L0 0L0 0Z" transform="translate(681 343)"></path><path d="M0 -1.9L0.4 -0.6L1.8 -0.6L0.7 0.2L1.1 1.5L0 0.7L-1.1 1.5L-0.7 0.2L-1.8 -0.6L-0.4 -0.6Z" transform="translate(845 85)"></path><path d="M0 -0.9L0.2 -0.3L0.9 -0.3L0.3 0.1L0.6 0.8L0 0.4L-0.6 0.8L-0.3 0.1L-0.9 -0.3L-0.2 -0.3Z" transform="translate(678 503)"></path><path d="M0 -10.4L2.3 -3.2L9.9 -3.2L3.8 1.2L6.1 8.4L0 4L-6.1 8.4L-3.8 1.2L-9.9 -3.2L-2.3 -3.2Z" transform="translate(751 484)"></path><path d="M0 -1.9L0.4 -0.6L1.8 -0.6L0.7 0.2L1.1 1.5L0 0.7L-1.1 1.5L-0.7 0.2L-1.8 -0.6L-0.4 -0.6Z" transform="translate(248 595)"></path><path d="M0 -9.4L2.1 -2.9L9 -2.9L3.4 1.1L5.5 7.6L0 3.6L-5.5 7.6L-3.4 1.1L-9 -2.9L-2.1 -2.9Z" transform="translate(320 385)"></path><path d="M0 -2.8L0.6 -0.9L2.7 -0.9L1 0.3L1.7 2.3L0 1.1L-1.7 2.3L-1 0.3L-2.7 -0.9L-0.6 -0.9Z" transform="translate(827 418)"></path><path d="M0 -10.4L2.3 -3.2L9.9 -3.2L3.8 1.2L6.1 8.4L0 4L-6.1 8.4L-3.8 1.2L-9.9 -3.2L-2.3 -3.2Z" transform="translate(324 4)"></path><path d="M0 -10.4L2.3 -3.2L9.9 -3.2L3.8 1.2L6.1 8.4L0 4L-6.1 8.4L-3.8 1.2L-9.9 -3.2L-2.3 -3.2Z" transform="translate(346 368)"></path><path d="M0 -0.9L0.2 -0.3L0.9 -0.3L0.3 0.1L0.6 0.8L0 0.4L-0.6 0.8L-0.3 0.1L-0.9 -0.3L-0.2 -0.3Z" transform="translate(849 186)"></path><path d="M0 -11.3L2.5 -3.5L10.8 -3.5L4.1 1.3L6.7 9.2L0 4.3L-6.7 9.2L-4.1 1.3L-10.8 -3.5L-2.5 -3.5Z" transform="translate(199 413)"></path><path d="M0 -9.4L2.1 -2.9L9 -2.9L3.4 1.1L5.5 7.6L0 3.6L-5.5 7.6L-3.4 1.1L-9 -2.9L-2.1 -2.9Z" transform="translate(507 216)"></path><path d="M0 -11.3L2.5 -3.5L10.8 -3.5L4.1 1.3L6.7 9.2L0 4.3L-6.7 9.2L-4.1 1.3L-10.8 -3.5L-2.5 -3.5Z" transform="translate(656 457)"></path><path d="M0 -7.6L1.7 -2.3L7.2 -2.3L2.7 0.9L4.4 6.1L0 2.9L-4.4 6.1L-2.7 0.9L-7.2 -2.3L-1.7 -2.3Z" transform="translate(468 7)"></path><path d="M0 -11.3L2.5 -3.5L10.8 -3.5L4.1 1.3L6.7 9.2L0 4.3L-6.7 9.2L-4.1 1.3L-10.8 -3.5L-2.5 -3.5Z" transform="translate(826 386)"></path><path d="M0 -4.7L1.1 -1.5L4.5 -1.5L1.7 0.6L2.8 3.8L0 1.8L-2.8 3.8L-1.7 0.6L-4.5 -1.5L-1.1 -1.5Z" transform="translate(267 480)"></path><path d="M0 -6.6L1.5 -2L6.3 -2L2.4 0.8L3.9 5.3L0 2.5L-3.9 5.3L-2.4 0.8L-6.3 -2L-1.5 -2Z" transform="translate(312 163)"></path><path d="M0 -9.4L2.1 -2.9L9 -2.9L3.4 1.1L5.5 7.6L0 3.6L-5.5 7.6L-3.4 1.1L-9 -2.9L-2.1 -2.9Z" transform="translate(417 447)"></path><path d="M0 -3.8L0.8 -1.2L3.6 -1.2L1.4 0.4L2.2 3.1L0 1.4L-2.2 3.1L-1.4 0.4L-3.6 -1.2L-0.8 -1.2Z" transform="translate(164 3)"></path><path d="M0 0L0 0L0 0L0 0L0 0L0 0L0 0L0 0L0 0L0 0Z" transform="translate(71 485)"></path><path d="M0 -2.8L0.6 -0.9L2.7 -0.9L1 0.3L1.7 2.3L0 1.1L-1.7 2.3L-1 0.3L-2.7 -0.9L-0.6 -0.9Z" transform="translate(327 208)"></path><path d="M0 -6.6L1.5 -2L6.3 -2L2.4 0.8L3.9 5.3L0 2.5L-3.9 5.3L-2.4 0.8L-6.3 -2L-1.5 -2Z" transform="translate(336 459)"></path><path d="M0 -1.9L0.4 -0.6L1.8 -0.6L0.7 0.2L1.1 1.5L0 0.7L-1.1 1.5L-0.7 0.2L-1.8 -0.6L-0.4 -0.6Z" transform="translate(896 44)"></path><path d="M0 -2.8L0.6 -0.9L2.7 -0.9L1 0.3L1.7 2.3L0 1.1L-1.7 2.3L-1 0.3L-2.7 -0.9L-0.6 -0.9Z" transform="translate(675 199)"></path><path d="M0 -9.4L2.1 -2.9L9 -2.9L3.4 1.1L5.5 7.6L0 3.6L-5.5 7.6L-3.4 1.1L-9 -2.9L-2.1 -2.9Z" transform="translate(382 3)"></path><path d="M0 -2.8L0.6 -0.9L2.7 -0.9L1 0.3L1.7 2.3L0 1.1L-1.7 2.3L-1 0.3L-2.7 -0.9L-0.6 -0.9Z" transform="translate(285 83)"></path><path d="M0 -1.9L0.4 -0.6L1.8 -0.6L0.7 0.2L1.1 1.5L0 0.7L-1.1 1.5L-0.7 0.2L-1.8 -0.6L-0.4 -0.6Z" transform="translate(568 556)"></path><path d="M0 -0.9L0.2 -0.3L0.9 -0.3L0.3 0.1L0.6 0.8L0 0.4L-0.6 0.8L-0.3 0.1L-0.9 -0.3L-0.2 -0.3Z" transform="translate(625 183)"></path><path d="M0 -1.9L0.4 -0.6L1.8 -0.6L0.7 0.2L1.1 1.5L0 0.7L-1.1 1.5L-0.7 0.2L-1.8 -0.6L-0.4 -0.6Z" transform="translate(224 525)"></path><path d="M0 -8.5L1.9 -2.6L8.1 -2.6L3.1 1L5 6.9L0 3.2L-5 6.9L-3.1 1L-8.1 -2.6L-1.9 -2.6Z" transform="translate(216 467)"></path><path d="M0 -6.6L1.5 -2L6.3 -2L2.4 0.8L3.9 5.3L0 2.5L-3.9 5.3L-2.4 0.8L-6.3 -2L-1.5 -2Z" transform="translate(619 511)"></path><path d="M0 -1.9L0.4 -0.6L1.8 -0.6L0.7 0.2L1.1 1.5L0 0.7L-1.1 1.5L-0.7 0.2L-1.8 -0.6L-0.4 -0.6Z" transform="translate(121 386)"></path><path d="M0 -9.4L2.1 -2.9L9 -2.9L3.4 1.1L5.5 7.6L0 3.6L-5.5 7.6L-3.4 1.1L-9 -2.9L-2.1 -2.9Z" transform="translate(859 6)"></path><path d="M0 -9.4L2.1 -2.9L9 -2.9L3.4 1.1L5.5 7.6L0 3.6L-5.5 7.6L-3.4 1.1L-9 -2.9L-2.1 -2.9Z" transform="translate(624 575)"></path><path d="M0 0L0 0L0 0L0 0L0 0L0 0L0 0L0 0L0 0L0 0Z" transform="translate(601 337)"></path><path d="M0 -8.5L1.9 -2.6L8.1 -2.6L3.1 1L5 6.9L0 3.2L-5 6.9L-3.1 1L-8.1 -2.6L-1.9 -2.6Z" transform="translate(708 212)"></path><path d="M0 -7.6L1.7 -2.3L7.2 -2.3L2.7 0.9L4.4 6.1L0 2.9L-4.4 6.1L-2.7 0.9L-7.2 -2.3L-1.7 -2.3Z" transform="translate(898 360)"></path><path d="M0 -6.6L1.5 -2L6.3 -2L2.4 0.8L3.9 5.3L0 2.5L-3.9 5.3L-2.4 0.8L-6.3 -2L-1.5 -2Z" transform="translate(36 392)"></path><path d="M0 -0.9L0.2 -0.3L0.9 -0.3L0.3 0.1L0.6 0.8L0 0.4L-0.6 0.8L-0.3 0.1L-0.9 -0.3L-0.2 -0.3Z" transform="translate(382 532)"></path><path d="M0 -5.7L1.3 -1.7L5.4 -1.7L2.1 0.7L3.3 4.6L0 2.2L-3.3 4.6L-2.1 0.7L-5.4 -1.7L-1.3 -1.7Z" transform="translate(308 450)"></path><path d="M0 -4.7L1.1 -1.5L4.5 -1.5L1.7 0.6L2.8 3.8L0 1.8L-2.8 3.8L-1.7 0.6L-4.5 -1.5L-1.1 -1.5Z" transform="translate(883 415)"></path><path d="M0 -10.4L2.3 -3.2L9.9 -3.2L3.8 1.2L6.1 8.4L0 4L-6.1 8.4L-3.8 1.2L-9.9 -3.2L-2.3 -3.2Z" transform="translate(281 118)"></path><path d="M0 -1.9L0.4 -0.6L1.8 -0.6L0.7 0.2L1.1 1.5L0 0.7L-1.1 1.5L-0.7 0.2L-1.8 -0.6L-0.4 -0.6Z" transform="translate(749 263)"></path><path d="M0 -5.7L1.3 -1.7L5.4 -1.7L2.1 0.7L3.3 4.6L0 2.2L-3.3 4.6L-2.1 0.7L-5.4 -1.7L-1.3 -1.7Z" transform="translate(5 6)"></path><path d="M0 -1.9L0.4 -0.6L1.8 -0.6L0.7 0.2L1.1 1.5L0 0.7L-1.1 1.5L-0.7 0.2L-1.8 -0.6L-0.4 -0.6Z" transform="translate(545 273)"></path><path d="M0 -10.4L2.3 -3.2L9.9 -3.2L3.8 1.2L6.1 8.4L0 4L-6.1 8.4L-3.8 1.2L-9.9 -3.2L-2.3 -3.2Z" transform="translate(459 415)"></path><path d="M0 0L0 0L0 0L0 0L0 0L0 0L0 0L0 0L0 0L0 0Z" transform="translate(586 108)"></path><path d="M0 -5.7L1.3 -1.7L5.4 -1.7L2.1 0.7L3.3 4.6L0 2.2L-3.3 4.6L-2.1 0.7L-5.4 -1.7L-1.3 -1.7Z" transform="translate(93 598)"></path><path d="M0 -9.4L2.1 -2.9L9 -2.9L3.4 1.1L5.5 7.6L0 3.6L-5.5 7.6L-3.4 1.1L-9 -2.9L-2.1 -2.9Z" transform="translate(896 486)"></path><path d="M0 -9.4L2.1 -2.9L9 -2.9L3.4 1.1L5.5 7.6L0 3.6L-5.5 7.6L-3.4 1.1L-9 -2.9L-2.1 -2.9Z" transform="translate(303 332)"></path><path d="M0 -3.8L0.8 -1.2L3.6 -1.2L1.4 0.4L2.2 3.1L0 1.4L-2.2 3.1L-1.4 0.4L-3.6 -1.2L-0.8 -1.2Z" transform="translate(111 169)"></path><path d="M0 -2.8L0.6 -0.9L2.7 -0.9L1 0.3L1.7 2.3L0 1.1L-1.7 2.3L-1 0.3L-2.7 -0.9L-0.6 -0.9Z" transform="translate(188 471)"></path><path d="M0 -9.4L2.1 -2.9L9 -2.9L3.4 1.1L5.5 7.6L0 3.6L-5.5 7.6L-3.4 1.1L-9 -2.9L-2.1 -2.9Z" transform="translate(896 283)"></path><path d="M0 0L0 0L0 0L0 0L0 0L0 0L0 0L0 0L0 0L0 0Z" transform="translate(893 566)"></path><path d="M0 -5.7L1.3 -1.7L5.4 -1.7L2.1 0.7L3.3 4.6L0 2.2L-3.3 4.6L-2.1 0.7L-5.4 -1.7L-1.3 -1.7Z" transform="translate(167 440)"></path><path d="M0 -7.6L1.7 -2.3L7.2 -2.3L2.7 0.9L4.4 6.1L0 2.9L-4.4 6.1L-2.7 0.9L-7.2 -2.3L-1.7 -2.3Z" transform="translate(770 398)"></path><path d="M0 -2.8L0.6 -0.9L2.7 -0.9L1 0.3L1.7 2.3L0 1.1L-1.7 2.3L-1 0.3L-2.7 -0.9L-0.6 -0.9Z" transform="translate(482 325)"></path><path d="M0 -11.3L2.5 -3.5L10.8 -3.5L4.1 1.3L6.7 9.2L0 4.3L-6.7 9.2L-4.1 1.3L-10.8 -3.5L-2.5 -3.5Z" transform="translate(428 49)"></path><path d="M0 -8.5L1.9 -2.6L8.1 -2.6L3.1 1L5 6.9L0 3.2L-5 6.9L-3.1 1L-8.1 -2.6L-1.9 -2.6Z" transform="translate(636 6)"></path><path d="M0 0L0 0L0 0L0 0L0 0L0 0L0 0L0 0L0 0L0 0Z" transform="translate(470 591)"></path><path d="M0 -4.7L1.1 -1.5L4.5 -1.5L1.7 0.6L2.8 3.8L0 1.8L-2.8 3.8L-1.7 0.6L-4.5 -1.5L-1.1 -1.5Z" transform="translate(251 376)"></path><path d="M0 -7.6L1.7 -2.3L7.2 -2.3L2.7 0.9L4.4 6.1L0 2.9L-4.4 6.1L-2.7 0.9L-7.2 -2.3L-1.7 -2.3Z" transform="translate(188 320)"></path><path d="M0 -9.4L2.1 -2.9L9 -2.9L3.4 1.1L5.5 7.6L0 3.6L-5.5 7.6L-3.4 1.1L-9 -2.9L-2.1 -2.9Z" transform="translate(444 152)"></path><path d="M0 0L0 0L0 0L0 0L0 0L0 0L0 0L0 0L0 0L0 0Z" transform="translate(678 284)"></path><path d="M0 0L0 0L0 0L0 0L0 0L0 0L0 0L0 0L0 0L0 0Z" transform="translate(529 323)"></path><path d="M0 -3.8L0.8 -1.2L3.6 -1.2L1.4 0.4L2.2 3.1L0 1.4L-2.2 3.1L-1.4 0.4L-3.6 -1.2L-0.8 -1.2Z" transform="translate(149 186)"></path><path d="M0 -1.9L0.4 -0.6L1.8 -0.6L0.7 0.2L1.1 1.5L0 0.7L-1.1 1.5L-0.7 0.2L-1.8 -0.6L-0.4 -0.6Z" transform="translate(410 478)"></path><path d="M0 -10.4L2.3 -3.2L9.9 -3.2L3.8 1.2L6.1 8.4L0 4L-6.1 8.4L-3.8 1.2L-9.9 -3.2L-2.3 -3.2Z" transform="translate(684 47)"></path><path d="M0 0L0 0L0 0L0 0L0 0L0 0L0 0L0 0L0 0L0 0Z" transform="translate(842 472)"></path><path d="M0 -2.8L0.6 -0.9L2.7 -0.9L1 0.3L1.7 2.3L0 1.1L-1.7 2.3L-1 0.3L-2.7 -0.9L-0.6 -0.9Z" transform="translate(200 152)"></path><path d="M0 -10.4L2.3 -3.2L9.9 -3.2L3.8 1.2L6.1 8.4L0 4L-6.1 8.4L-3.8 1.2L-9.9 -3.2L-2.3 -3.2Z" transform="translate(17 37)"></path><path d="M0 -2.8L0.6 -0.9L2.7 -0.9L1 0.3L1.7 2.3L0 1.1L-1.7 2.3L-1 0.3L-2.7 -0.9L-0.6 -0.9Z" transform="translate(369 63)"></path><path d="M0 -10.4L2.3 -3.2L9.9 -3.2L3.8 1.2L6.1 8.4L0 4L-6.1 8.4L-3.8 1.2L-9.9 -3.2L-2.3 -3.2Z" transform="translate(536 72)"></path><path d="M0 -5.7L1.3 -1.7L5.4 -1.7L2.1 0.7L3.3 4.6L0 2.2L-3.3 4.6L-2.1 0.7L-5.4 -1.7L-1.3 -1.7Z" transform="translate(629 456)"></path><path d="M0 -7.6L1.7 -2.3L7.2 -2.3L2.7 0.9L4.4 6.1L0 2.9L-4.4 6.1L-2.7 0.9L-7.2 -2.3L-1.7 -2.3Z" transform="translate(482 70)"></path><path d="M0 -10.4L2.3 -3.2L9.9 -3.2L3.8 1.2L6.1 8.4L0 4L-6.1 8.4L-3.8 1.2L-9.9 -3.2L-2.3 -3.2Z" transform="translate(193 236)"></path><path d="M0 -7.6L1.7 -2.3L7.2 -2.3L2.7 0.9L4.4 6.1L0 2.9L-4.4 6.1L-2.7 0.9L-7.2 -2.3L-1.7 -2.3Z" transform="translate(53 534)"></path><path d="M0 -6.6L1.5 -2L6.3 -2L2.4 0.8L3.9 5.3L0 2.5L-3.9 5.3L-2.4 0.8L-6.3 -2L-1.5 -2Z" transform="translate(288 595)"></path><path d="M0 -7.6L1.7 -2.3L7.2 -2.3L2.7 0.9L4.4 6.1L0 2.9L-4.4 6.1L-2.7 0.9L-7.2 -2.3L-1.7 -2.3Z" transform="translate(863 210)"></path><path d="M0 -7.6L1.7 -2.3L7.2 -2.3L2.7 0.9L4.4 6.1L0 2.9L-4.4 6.1L-2.7 0.9L-7.2 -2.3L-1.7 -2.3Z" transform="translate(795 128)"></path><path d="M0 -0.9L0.2 -0.3L0.9 -0.3L0.3 0.1L0.6 0.8L0 0.4L-0.6 0.8L-0.3 0.1L-0.9 -0.3L-0.2 -0.3Z" transform="translate(119 569)"></path><path d="M0 -9.4L2.1 -2.9L9 -2.9L3.4 1.1L5.5 7.6L0 3.6L-5.5 7.6L-3.4 1.1L-9 -2.9L-2.1 -2.9Z" transform="translate(790 28)"></path><path d="M0 -1.9L0.4 -0.6L1.8 -0.6L0.7 0.2L1.1 1.5L0 0.7L-1.1 1.5L-0.7 0.2L-1.8 -0.6L-0.4 -0.6Z" transform="translate(740 1)"></path><path d="M0 -11.3L2.5 -3.5L10.8 -3.5L4.1 1.3L6.7 9.2L0 4.3L-6.7 9.2L-4.1 1.3L-10.8 -3.5L-2.5 -3.5Z" transform="translate(171 63)"></path><path d="M0 -2.8L0.6 -0.9L2.7 -0.9L1 0.3L1.7 2.3L0 1.1L-1.7 2.3L-1 0.3L-2.7 -0.9L-0.6 -0.9Z" transform="translate(820 536)"></path><path d="M0 -7.6L1.7 -2.3L7.2 -2.3L2.7 0.9L4.4 6.1L0 2.9L-4.4 6.1L-2.7 0.9L-7.2 -2.3L-1.7 -2.3Z" transform="translate(148 390)"></path><path d="M0 -9.4L2.1 -2.9L9 -2.9L3.4 1.1L5.5 7.6L0 3.6L-5.5 7.6L-3.4 1.1L-9 -2.9L-2.1 -2.9Z" transform="translate(626 59)"></path><path d="M0 -8.5L1.9 -2.6L8.1 -2.6L3.1 1L5 6.9L0 3.2L-5 6.9L-3.1 1L-8.1 -2.6L-1.9 -2.6Z" transform="translate(850 235)"></path><path d="M0 -2.8L0.6 -0.9L2.7 -0.9L1 0.3L1.7 2.3L0 1.1L-1.7 2.3L-1 0.3L-2.7 -0.9L-0.6 -0.9Z" transform="translate(179 131)"></path><path d="M0 -7.6L1.7 -2.3L7.2 -2.3L2.7 0.9L4.4 6.1L0 2.9L-4.4 6.1L-2.7 0.9L-7.2 -2.3L-1.7 -2.3Z" transform="translate(408 533)"></path><path d="M0 -0.9L0.2 -0.3L0.9 -0.3L0.3 0.1L0.6 0.8L0 0.4L-0.6 0.8L-0.3 0.1L-0.9 -0.3L-0.2 -0.3Z" transform="translate(342 258)"></path><path d="M0 -3.8L0.8 -1.2L3.6 -1.2L1.4 0.4L2.2 3.1L0 1.4L-2.2 3.1L-1.4 0.4L-3.6 -1.2L-0.8 -1.2Z" transform="translate(896 535)"></path><path d="M0 -7.6L1.7 -2.3L7.2 -2.3L2.7 0.9L4.4 6.1L0 2.9L-4.4 6.1L-2.7 0.9L-7.2 -2.3L-1.7 -2.3Z" transform="translate(562 123)"></path><path d="M0 -1.9L0.4 -0.6L1.8 -0.6L0.7 0.2L1.1 1.5L0 0.7L-1.1 1.5L-0.7 0.2L-1.8 -0.6L-0.4 -0.6Z" transform="translate(322 31)"></path><path d="M0 -10.4L2.3 -3.2L9.9 -3.2L3.8 1.2L6.1 8.4L0 4L-6.1 8.4L-3.8 1.2L-9.9 -3.2L-2.3 -3.2Z" transform="translate(367 241)"></path><path d="M0 -11.3L2.5 -3.5L10.8 -3.5L4.1 1.3L6.7 9.2L0 4.3L-6.7 9.2L-4.1 1.3L-10.8 -3.5L-2.5 -3.5Z" transform="translate(818 188)"></path><path d="M0 -4.7L1.1 -1.5L4.5 -1.5L1.7 0.6L2.8 3.8L0 1.8L-2.8 3.8L-1.7 0.6L-4.5 -1.5L-1.1 -1.5Z" transform="translate(556 373)"></path><path d="M0 -7.6L1.7 -2.3L7.2 -2.3L2.7 0.9L4.4 6.1L0 2.9L-4.4 6.1L-2.7 0.9L-7.2 -2.3L-1.7 -2.3Z" transform="translate(79 297)"></path><path d="M0 -5.7L1.3 -1.7L5.4 -1.7L2.1 0.7L3.3 4.6L0 2.2L-3.3 4.6L-2.1 0.7L-5.4 -1.7L-1.3 -1.7Z" transform="translate(768 556)"></path><path d="M0 0L0 0L0 0L0 0L0 0L0 0L0 0L0 0L0 0L0 0Z" transform="translate(68 121)"></path><path d="M0 -10.4L2.3 -3.2L9.9 -3.2L3.8 1.2L6.1 8.4L0 4L-6.1 8.4L-3.8 1.2L-9.9 -3.2L-2.3 -3.2Z" transform="translate(386 345)"></path><path d="M0 -4.7L1.1 -1.5L4.5 -1.5L1.7 0.6L2.8 3.8L0 1.8L-2.8 3.8L-1.7 0.6L-4.5 -1.5L-1.1 -1.5Z" transform="translate(413 230)"></path><path d="M0 -8.5L1.9 -2.6L8.1 -2.6L3.1 1L5 6.9L0 3.2L-5 6.9L-3.1 1L-8.1 -2.6L-1.9 -2.6Z" transform="translate(748 381)"></path><path d="M0 -6.6L1.5 -2L6.3 -2L2.4 0.8L3.9 5.3L0 2.5L-3.9 5.3L-2.4 0.8L-6.3 -2L-1.5 -2Z" transform="translate(164 278)"></path><path d="M0 -10.4L2.3 -3.2L9.9 -3.2L3.8 1.2L6.1 8.4L0 4L-6.1 8.4L-3.8 1.2L-9.9 -3.2L-2.3 -3.2Z" transform="translate(29 110)"></path><path d="M0 -4.7L1.1 -1.5L4.5 -1.5L1.7 0.6L2.8 3.8L0 1.8L-2.8 3.8L-1.7 0.6L-4.5 -1.5L-1.1 -1.5Z" transform="translate(256 68)"></path><path d="M0 -4.7L1.1 -1.5L4.5 -1.5L1.7 0.6L2.8 3.8L0 1.8L-2.8 3.8L-1.7 0.6L-4.5 -1.5L-1.1 -1.5Z" transform="translate(2 226)"></path><path d="M0 -5.7L1.3 -1.7L5.4 -1.7L2.1 0.7L3.3 4.6L0 2.2L-3.3 4.6L-2.1 0.7L-5.4 -1.7L-1.3 -1.7Z" transform="translate(421 2)"></path><path d="M0 -11.3L2.5 -3.5L10.8 -3.5L4.1 1.3L6.7 9.2L0 4.3L-6.7 9.2L-4.1 1.3L-10.8 -3.5L-2.5 -3.5Z" transform="translate(684 20)"></path></g></svg>